<svg width="304" height="73" viewBox="0 0 304 73" fill="none" xmlns="http://www.w3.org/2000/svg">
<path d="M139.48 36.8838C139.48 38.2774 140.003 39.6128 140.99 40.5999C141.977 41.587 143.312 42.1096 144.706 42.1096C147.609 42.1096 149.932 39.787 149.932 36.8838C149.99 35.4903 149.467 34.0967 148.48 33.1096C147.493 32.1226 146.1 31.5419 144.706 31.6C141.803 31.658 139.48 33.9806 139.48 36.8838ZM141.454 36.8838C141.454 35.0258 142.79 33.2838 144.764 33.2838C146.738 33.2838 148.074 34.7354 148.074 36.8838C148.132 37.8128 147.783 38.6838 147.145 39.3806C146.506 40.0773 145.635 40.4257 144.764 40.4257C142.79 40.4838 141.454 38.9741 141.454 36.8838ZM128.042 36.8838C127.984 38.2774 128.506 39.6709 129.493 40.658C130.48 41.6451 131.874 42.1677 133.267 42.1096C134.835 42.1677 136.345 41.4128 137.274 40.1354L137.332 40.0773L135.88 38.858L135.822 38.9741C135.3 39.9612 134.313 40.5419 133.209 40.4838C131.235 40.4838 129.9 38.9161 129.9 36.8838C129.842 35.9548 130.19 35.0838 130.771 34.3871C131.409 33.6903 132.28 33.2838 133.209 33.2838C134.254 33.2838 135.242 33.8645 135.822 34.7354L135.88 34.7935L137.332 33.6322L137.274 33.5742C136.287 32.3548 134.777 31.658 133.209 31.658C131.816 31.658 130.48 32.1806 129.551 33.1677C128.622 34.1548 128.042 35.4903 128.042 36.8838ZM201.667 37.6967V41.8773H203.525V37.6967L207.183 31.8903H205.151L202.596 35.8967L200.157 31.8903H198.009L201.667 37.6967ZM167.699 31.8903V41.8773H169.616V38.1612C169.732 38.1612 169.906 38.2193 170.08 38.2193C172.519 38.2193 174.203 37.1741 174.203 35.0838C174.203 33.1096 172.751 31.8903 170.022 31.8903H167.699ZM169.616 33.4H170.08C171.648 33.4 172.286 33.9806 172.286 35.0258C172.286 36.0709 171.59 36.6516 170.08 36.6516C169.906 36.6516 169.79 36.6516 169.616 36.5935V33.4ZM155.041 36.4774L158.177 42.1677L161.254 36.4774L162.474 41.8773H164.448L161.835 31.7161L158.235 38.4516L154.519 31.7161L152.022 41.9354H153.88L155.041 36.4774ZM103.771 37.8128L97.1515 31.7161V41.9354H98.9514V36.0129L105.629 42.1677V31.8903H103.771V37.8128ZM90.8805 31.8903V41.8773H92.7966V31.8903H90.8805ZM88.4418 41.8773L83.5644 31.658L78.687 41.8773H80.6032L81.5903 39.729H85.4225L86.3515 41.8773H88.4418ZM82.287 38.1612L83.5644 35.258L84.7257 38.1612H82.287ZM75.3193 36.5935C76.1322 36.2451 76.6548 35.3741 76.6548 34.5032C76.6548 32.7613 75.2613 31.8903 72.8806 31.8903H70.5V41.8773H73.3451C75.9 41.8773 77.2935 40.8322 77.2935 38.9741C77.2354 37.8128 76.4225 36.8258 75.3193 36.5935ZM73.229 37.6387C74.5645 37.6387 75.3193 37.987 75.3193 39.0322C75.3193 39.9612 74.6226 40.3677 73.229 40.3677H72.4161V37.6387H73.229ZM72.4161 36.129V33.4H72.7645C74.158 33.4 74.8548 33.7484 74.8548 34.7935C74.8548 35.8387 74.158 36.129 72.8226 36.129H72.4161ZM119.913 41.9354H122.119C122.119 41.9354 120.435 40.0193 120.145 39.6709C120.377 39.3806 121.829 37.1741 121.829 37.1741H120.029L119.158 38.5096L117.59 36.7096C118.926 36.0129 119.738 35.0258 119.738 33.9806C119.738 32.5871 118.519 31.658 116.951 31.658C115.209 31.658 114.048 32.7032 114.048 34.0967C114.106 35.0258 114.513 35.8387 115.151 36.4774C114.106 37.058 113.177 37.929 113.177 39.3806C113.177 40.9483 114.455 42.1677 116.313 42.1677C117.358 42.1677 118.403 41.7612 119.1 40.9483L119.913 41.9354ZM115.79 34.1548C115.79 33.8645 115.906 33.5161 116.138 33.3419C116.371 33.1096 116.661 32.9935 116.951 32.9935C117.242 32.9935 117.532 33.0516 117.764 33.2838C117.996 33.458 118.113 33.7484 118.055 34.0387C118.055 34.7354 117.358 35.258 116.661 35.6064C116.196 35.258 115.848 34.7354 115.79 34.1548ZM118.055 39.8451C117.706 40.3096 117.126 40.5999 116.487 40.5999C116.08 40.658 115.732 40.4838 115.442 40.2515C115.151 39.9612 114.977 39.6128 114.977 39.2064C115.035 38.5096 115.442 37.929 116.022 37.5806H116.08L118.055 39.8451ZM193.886 37.8128L187.267 31.7161V41.8773H189.125V36.0129L195.744 42.1677V31.8903H193.886V37.8128ZM184.828 41.8773L179.951 31.658L175.074 41.8773H176.99L177.977 39.729H181.809L182.738 41.8773H184.828ZM178.674 38.1612L179.951 35.258L181.112 38.1612H178.674ZM226.751 37.3483L225.125 30.1484L220.654 35.9548L226.751 37.3483ZM232.499 36.8838C232.499 41.7612 228.493 45.7676 223.615 45.7676C218.738 45.7676 214.731 41.7612 214.731 36.8838C214.731 32.0064 218.738 28 223.615 28C224.08 28 224.544 28.0581 225.009 28.1161L224.254 29.1032H223.615C221.641 29.1032 219.783 29.8581 218.331 31.1935C216.938 32.5871 216.125 34.4451 216.125 36.4193C216.125 40.5419 219.493 43.9096 223.615 43.9096C227.738 43.9096 231.105 40.5419 231.105 36.4193C231.105 33.4 229.189 30.671 226.344 29.6258L226.054 28.4064C229.886 29.4516 232.499 32.9355 232.499 36.8838Z" fill="#9B9996"/>
</svg>
