<svg width="304" height="73" viewBox="0 0 304 73" fill="none" xmlns="http://www.w3.org/2000/svg">
<path d="M166.979 26.2845C166.149 26.3935 165.181 26.7107 164.411 27.1368C163.127 27.8504 161.833 29.3668 161.29 30.8039C160.767 32.2211 160.697 32.6572 160.688 34.4511C160.688 35.9179 160.717 36.2449 160.915 36.9288C161.626 39.4065 163.157 40.9724 165.527 41.6563C166.613 41.9635 168.618 41.9635 169.754 41.6563C170.939 41.3292 172.036 40.7148 172.826 39.9318L173.507 39.2479L173.29 39.0299L173.082 38.802L172.599 39.2579C171.7 40.1003 170.297 40.685 168.845 40.804C165.033 41.1211 162.544 37.9694 162.742 33.0635C162.831 30.9129 163.374 29.4064 164.421 28.3658C165.329 27.4639 166.07 27.117 167.423 26.9584C169.952 26.671 171.868 27.8405 172.707 30.1894C172.885 30.6948 172.974 30.8336 173.132 30.8336C173.349 30.8336 173.359 30.675 173.221 27.6819C173.152 26.2548 173.092 26.1457 172.618 26.5917C172.322 26.8692 171.72 26.8692 170.712 26.5818C170.011 26.3935 168.391 26.1656 167.848 26.1854C167.71 26.1953 167.315 26.2349 166.979 26.2845Z" fill="#9B9996"/>
<path d="M57.7373 26.8208C57.7571 26.9695 57.9052 27.0686 58.2904 27.1974C58.5768 27.2965 58.9423 27.5047 59.1003 27.6533C59.6139 28.1489 59.6237 28.3372 59.3472 33.6692C59.2089 36.3551 59.0608 38.813 59.0015 39.14C58.8139 40.2897 58.3793 40.8447 57.5003 41.0925C57.2238 41.1619 57.125 41.2412 57.125 41.3799C57.125 41.5682 57.204 41.5781 59.4953 41.5781C61.7669 41.5781 61.8657 41.5682 61.8657 41.3898C61.8657 41.2412 61.7373 41.1619 61.3422 41.0429C60.7892 40.8844 60.3645 40.5177 60.1966 40.0618C60.1373 39.9032 60.0879 39.259 60.0879 38.6247C60.0879 37.4155 60.4534 29.3778 60.5126 29.3283C60.5324 29.3084 61.6089 32.024 62.9126 35.364L65.2829 41.4295L65.5891 41.4592C65.7669 41.479 65.9052 41.4394 65.9348 41.3601C65.9644 41.2907 67.0014 38.5751 68.236 35.3343C69.4706 32.0934 70.5273 29.3976 70.5668 29.3481C70.6162 29.2886 70.6557 29.3877 70.6557 29.5959C70.6557 29.7743 70.7446 32.1132 70.8631 34.7892C70.9915 37.4552 71.0508 39.814 71.0113 40.0122C70.9125 40.5474 70.5175 40.9636 70.0039 41.0925C69.6878 41.1718 69.5693 41.2511 69.5693 41.3898C69.5693 41.5682 69.6878 41.5781 72.2853 41.5781C74.8927 41.5781 75.0014 41.5682 75.0014 41.3898C75.0014 41.2412 74.8829 41.1718 74.4977 41.0826C73.5989 40.8645 73.2039 40.2699 73.0755 38.9517C72.9866 38.03 72.631 30.2896 72.631 29.2886C72.631 27.9407 72.8977 27.4848 73.7866 27.2569C74.152 27.1677 74.2705 27.0884 74.2903 26.9199C74.3199 26.7118 74.31 26.7118 72.4532 26.7118H70.5767L68.3841 32.47C66.4089 37.6237 66.1619 38.1985 66.0632 37.9904C65.994 37.8715 64.9768 35.255 63.7916 32.1826L61.6385 26.6127H59.6731C57.7373 26.6127 57.7077 26.6127 57.7373 26.8208Z" fill="#9B9996"/>
<path d="M84.4844 26.801C84.4844 26.9992 84.5634 27.0388 85.1461 27.1578C85.5412 27.2371 85.9362 27.6831 86.035 28.1786C86.0745 28.3768 86.114 31.023 86.114 34.0458C86.114 40.0816 86.0942 40.3789 85.5708 40.8249C85.4128 40.9537 85.1066 41.0826 84.8893 41.1222C84.5733 41.1718 84.4844 41.2312 84.4844 41.3799C84.4844 41.5682 84.5535 41.5781 87.151 41.5781C89.7288 41.5781 89.8176 41.5682 89.8176 41.3799C89.8176 41.2412 89.7288 41.1718 89.4522 41.1222C88.8893 41.0231 88.5535 40.815 88.3757 40.4681C88.2078 40.141 88.1683 39.6851 88.0991 37.0885L88.0596 35.5226L88.4349 35.0865L88.8103 34.6504L90.6374 36.9002C91.6448 38.139 92.9188 39.6951 93.4818 40.3591L94.509 41.5682L98.7854 41.5781C102.914 41.5781 103.052 41.5682 103.052 41.3898C103.052 41.2412 102.953 41.1916 102.568 41.1321C102.242 41.0925 102.015 40.9835 101.847 40.815L101.62 40.5672L101.59 36.4145L101.561 32.2619H99.8422C98.1929 32.2619 98.1138 32.2718 98.1138 32.4601C98.1138 32.5989 98.2027 32.6583 98.4892 32.7079C99.2003 32.8169 99.3484 32.8962 99.5459 33.3025C99.7138 33.6593 99.7435 33.9566 99.7731 36.2262C99.7928 37.6138 99.7632 39.1698 99.7138 39.6851C99.6348 40.478 99.5854 40.6465 99.3583 40.8645C99.1311 41.1024 99.0324 41.1222 98.341 41.1321C97.6892 41.1321 97.4916 41.0826 97.0373 40.8447C96.0497 40.3294 93.8966 38.0201 90.8645 34.2242L90.0942 33.2629L92.3361 30.7752C94.983 27.8317 95.5657 27.3461 96.7311 27.0983C97.1163 27.019 97.225 26.9496 97.225 26.801C97.225 26.6226 97.1262 26.6127 94.7065 26.6127C92.2472 26.6127 92.188 26.6127 92.188 26.8109C92.188 26.9397 92.2868 27.0488 92.4547 27.1181C93.1559 27.3857 93.2744 27.9903 92.8003 28.8129C92.5337 29.2985 88.2572 34.1251 88.0991 34.135C87.9905 34.145 88.1189 29.0012 88.2473 28.3273C88.4053 27.5443 88.7016 27.247 89.551 27.0686C89.7288 27.0289 89.8176 26.9397 89.8176 26.8109C89.8176 26.6226 89.7386 26.6127 87.151 26.6127C84.5831 26.6127 84.4844 26.6226 84.4844 26.801Z" fill="#9B9996"/>
<path d="M100.035 27.3376C99.2346 27.7341 99.2248 29.0027 100.025 29.4189C100.973 29.9145 102.059 28.9234 101.654 27.9422C101.486 27.5458 100.983 27.1791 100.598 27.1791C100.459 27.1791 100.212 27.2583 100.035 27.3376Z" fill="#9B9996"/>
<path d="M148.702 27.5655C147.151 28.1205 146.559 29.7756 147.24 31.6289C147.388 32.0353 147.497 32.3624 147.477 32.3723C146.559 32.8282 146.223 33.0462 145.877 33.3832C145.028 34.2058 144.633 35.2464 144.633 36.6538C144.633 38.6558 145.591 40.301 147.27 41.193C148.248 41.7083 149.028 41.8867 150.262 41.8867C151.852 41.8867 152.959 41.5299 154.272 40.6181L154.875 40.2019L155.892 40.8758L156.909 41.5597H158.568C160.129 41.5597 160.238 41.5497 160.238 41.3714C160.238 41.2326 160.119 41.1533 159.773 41.0641C158.914 40.8362 156.455 39.4784 156.099 39.0423C156.02 38.9531 156.06 38.7549 156.238 38.299C156.376 37.962 156.593 37.0799 156.722 36.3366C156.919 35.1374 156.978 34.959 157.215 34.7509C157.364 34.622 157.61 34.5229 157.778 34.5229C157.996 34.5229 158.065 34.4734 158.065 34.3247C158.065 34.1364 157.996 34.1265 155.991 34.1265C154.035 34.1265 153.917 34.1364 153.917 34.3148C153.917 34.4535 154.006 34.513 154.292 34.5427C155.566 34.7211 156.001 35.4248 155.803 37.0106C155.744 37.4367 155.615 37.9521 155.517 38.1404L155.339 38.4972L154.361 37.6845C153.136 36.6637 151.201 34.7112 150.361 33.6409C149.038 31.956 148.188 30.3306 148.188 29.4783C148.188 29.3395 148.277 29.0422 148.376 28.8143C148.603 28.2989 149.048 28.0808 149.838 28.0808C150.914 28.0808 151.922 28.7845 152.475 29.9243C152.929 30.846 153.028 30.6775 153.028 29.0224C153.028 27.6745 153.018 27.5853 152.84 27.5853C152.741 27.5853 152.633 27.6547 152.593 27.734C152.514 27.9421 152.08 27.9223 151.388 27.6745C150.549 27.3772 149.364 27.3276 148.702 27.5655ZM148.415 33.8688C149.561 35.6032 151.309 37.4367 153.354 39.072L154.223 39.7658L153.828 39.9739C152.702 40.5487 150.677 40.6875 149.403 40.2911C147.932 39.8352 146.717 38.6558 146.302 37.2881C146.134 36.7331 146.095 36.4159 146.134 35.7122C146.183 34.5626 146.529 33.8391 147.24 33.3534C147.497 33.185 147.754 33.0363 147.793 33.0363C147.833 33.0363 148.109 33.4129 148.415 33.8688Z" fill="#9B9996"/>
<path d="M118.359 32.1719C117.638 32.3701 117.095 32.7666 116.729 33.3513C116.492 33.7477 116.433 33.9658 116.403 34.5406C116.374 35.1353 116.403 35.3137 116.601 35.6903C116.917 36.275 117.608 36.7904 118.754 37.2859C120.334 37.9698 120.749 38.1878 121.144 38.5446C122.131 39.4366 121.766 40.7448 120.433 41.0322C118.793 41.389 117.519 40.7944 116.917 39.4069C116.68 38.8717 116.601 38.7626 116.393 38.7626H116.156L116.216 39.7141C116.285 40.7647 116.403 41.0422 116.877 41.2899C117.381 41.5476 118.457 41.7458 119.415 41.7458C120.749 41.7557 121.49 41.4881 122.211 40.7547C122.813 40.1502 123.001 39.6943 123.001 38.9014C122.981 37.5238 122.28 36.7904 120.077 35.829C118.23 35.0262 117.736 34.5902 117.736 33.7874C117.736 32.7765 119.218 32.2908 120.433 32.9152C120.976 33.1927 121.559 33.8171 121.786 34.3523C121.904 34.6595 122.023 34.7983 122.151 34.7983C122.319 34.7983 122.329 34.7289 122.29 33.7676C122.26 33.1531 122.191 32.6674 122.122 32.5782C121.796 32.1917 119.277 31.9142 118.359 32.1719Z" fill="#9B9996"/>
<path d="M128.045 32.2147C126.514 32.6409 125.527 33.6419 124.924 35.4159C124.638 36.2584 124.667 38.3198 124.983 39.1325C125.596 40.7381 126.652 41.5508 128.401 41.7787C129.082 41.8778 129.349 41.8679 130.07 41.7193C131.541 41.4319 132.934 40.639 132.815 40.1633C132.756 39.9353 132.726 39.9353 131.798 40.3317C131.225 40.5795 131.038 40.6093 130.07 40.6192C129.112 40.6192 128.924 40.5894 128.489 40.3714C127.857 40.0642 127.235 39.4398 126.909 38.7856C126.623 38.2306 126.366 37.1801 126.366 36.5755V36.2088H129.625H132.884V35.8124C132.884 34.7321 132.341 33.4536 131.64 32.8688C130.761 32.1453 129.289 31.8778 128.045 32.2147ZM129.803 32.9977C130.563 33.3148 131.087 34.0581 131.176 34.9799L131.235 35.515H128.805H126.376L126.425 35.188C126.613 34.1077 127.097 33.3446 127.788 33.0274C128.292 32.7995 129.299 32.7796 129.803 32.9977Z" fill="#9B9996"/>
<path d="M178.415 32.1819C177.141 32.4594 175.936 33.3018 175.284 34.3623C174.682 35.3633 174.464 37.2662 174.82 38.4753C175.472 40.6557 176.973 41.736 179.403 41.7459C181.003 41.7558 181.971 41.4089 182.998 40.4476C184.025 39.4763 184.469 38.3861 184.469 36.8301C184.469 35.3335 184.025 34.1938 183.106 33.3216C182.455 32.7072 181.813 32.3801 180.855 32.1819C179.956 31.9936 179.274 31.9936 178.415 32.1819ZM180.46 33.054C181.892 33.728 182.751 35.5912 182.632 37.7716C182.603 38.287 182.534 38.8816 182.474 39.0799C181.921 40.9035 179.679 41.617 178.119 40.4575C177.151 39.7439 176.578 38.4753 176.469 36.8103C176.331 34.7092 177.023 33.3315 178.415 32.9054C178.968 32.7369 179.926 32.8063 180.46 33.054Z" fill="#9B9996"/>
<path d="M79.2501 32.2856C77.097 32.8902 75.5859 34.9913 75.5859 37.3897C75.5859 38.7772 76.0205 39.9071 76.86 40.69C78.0649 41.8199 79.8526 42.1172 81.7785 41.5027C82.4896 41.2748 83.3093 40.8189 83.6155 40.4819C83.7538 40.3332 83.7636 40.2738 83.655 40.1251C83.5365 39.9665 83.5068 39.9665 83.0427 40.1747C80.9982 41.0865 79.0723 40.7198 78.0847 39.2331C77.176 37.8753 77.018 35.358 77.7686 34.1786C78.1834 33.5146 78.6871 33.2767 79.734 33.2767C80.4353 33.2767 80.6624 33.3163 81.1266 33.5344C81.4427 33.683 81.8772 33.9903 82.1143 34.2281C82.4994 34.6147 82.539 34.6345 82.6673 34.466C82.8254 34.248 83.1908 33.2767 83.1908 33.0785C83.1908 32.8902 82.7464 32.5928 82.1538 32.3847C81.4723 32.1469 79.9414 32.0973 79.2501 32.2856Z" fill="#9B9996"/>
<path d="M109.512 32.3313C108.811 32.5889 108.199 32.9656 107.734 33.4413C107.517 33.6593 107.31 33.8476 107.27 33.8476C107.221 33.8476 107.191 33.4908 107.191 33.0548V32.2619H105.463C103.823 32.2619 103.734 32.2718 103.734 32.4502C103.734 32.5989 103.833 32.6583 104.159 32.7079C104.386 32.7376 104.692 32.8169 104.831 32.8664C105.344 33.0647 105.364 33.1935 105.364 36.9795C105.364 40.369 105.354 40.478 105.157 40.7555C104.999 40.9736 104.831 41.0528 104.396 41.1222C103.952 41.1916 103.833 41.2511 103.833 41.3997C103.833 41.5682 103.971 41.5781 106.302 41.5781C108.653 41.5781 108.771 41.5682 108.771 41.3898C108.771 41.2412 108.673 41.1916 108.297 41.142C107.32 41.0132 107.201 40.587 107.191 37.1281C107.191 35.2847 107.211 35.0667 107.399 34.6801C107.784 33.8774 108.821 33.3124 109.868 33.3223C110.855 33.3422 111.408 33.7089 111.705 34.581C111.863 35.0171 111.882 35.4433 111.882 37.6633C111.873 40.6663 111.823 40.8943 111.171 41.0727C110.964 41.1321 110.717 41.1817 110.628 41.1817C110.52 41.1817 110.45 41.261 110.45 41.3799C110.45 41.5682 110.52 41.5781 112.87 41.5781C115.221 41.5781 115.29 41.5682 115.29 41.3799C115.29 41.2412 115.221 41.1817 115.073 41.1817C114.608 41.1817 114.105 40.9736 113.927 40.706C113.779 40.478 113.749 40.0717 113.7 37.6138C113.631 34.5017 113.571 34.145 112.989 33.2926C112.505 32.579 111.823 32.2322 110.806 32.1925C110.213 32.1628 109.878 32.2024 109.512 32.3313Z" fill="#9B9996"/>
<path d="M191.2 32.2916C190.498 32.5295 189.955 32.8565 189.412 33.3917L188.879 33.9071V33.0845V32.2619H187.15C185.521 32.2619 185.422 32.2718 185.422 32.4502C185.422 32.6484 185.669 32.7574 186.123 32.7574C186.548 32.7574 186.874 33.0944 186.992 33.6593C187.121 34.2639 187.13 39.7743 187.002 40.3294C186.884 40.8844 186.617 41.1024 186.024 41.1619C185.619 41.2015 185.521 41.2412 185.521 41.3898C185.521 41.5682 185.639 41.5781 187.94 41.5781C190.261 41.5781 190.36 41.5682 190.36 41.3898C190.36 41.2412 190.261 41.1817 189.955 41.1321C189.402 41.033 189.076 40.7258 188.967 40.1906C188.928 39.9428 188.888 38.6841 188.879 37.3858C188.879 34.7099 188.918 34.5414 189.659 33.9566C190.232 33.5007 190.725 33.3223 191.446 33.3223C192.197 33.3223 192.602 33.5007 192.967 33.9665C193.382 34.5216 193.441 34.9973 193.402 37.8417C193.372 40.3294 193.362 40.4879 193.165 40.7555C193.017 40.9537 192.829 41.0628 192.503 41.1222C192.148 41.1916 192.039 41.261 192.039 41.3997C192.039 41.5682 192.177 41.5781 194.36 41.5781C196.582 41.5781 196.681 41.5682 196.681 41.3898C196.681 41.2412 196.582 41.1817 196.266 41.1321C195.229 40.9537 195.199 40.8645 195.199 37.5642C195.199 34.6405 195.199 34.6207 195.851 34.0458C196.404 33.5701 197.017 33.3323 197.708 33.3223C198.399 33.3223 198.804 33.4908 199.19 33.9467C199.644 34.4918 199.693 34.8784 199.693 37.7129C199.683 40.7159 199.654 40.8943 198.972 41.0727C198.775 41.1321 198.548 41.1817 198.488 41.1817C198.419 41.1817 198.36 41.2709 198.36 41.3799C198.36 41.5682 198.429 41.5781 200.78 41.5781C203.081 41.5781 203.199 41.5682 203.199 41.3898C203.199 41.2412 203.101 41.1916 202.706 41.142C202.409 41.1024 202.113 40.9835 201.945 40.8447L201.668 40.6069L201.609 37.6435C201.54 34.4125 201.481 34.0359 200.938 33.2827C200.394 32.5295 199.614 32.1628 198.557 32.1628C197.412 32.1628 196.414 32.6385 195.506 33.5998C195.219 33.8972 194.972 34.1449 194.962 34.1449C194.943 34.1449 194.893 34.026 194.864 33.8774C194.735 33.3917 194.241 32.807 193.708 32.5096C193.274 32.2718 193.037 32.2222 192.385 32.1925C191.911 32.1727 191.437 32.2123 191.2 32.2916Z" fill="#9B9996"/>
<path d="M208.991 32.2259C208.418 32.3745 207.657 32.7908 207.183 33.2368L206.749 33.6431V32.9295V32.2259H205.07C203.47 32.2259 203.391 32.2358 203.391 32.4241C203.391 32.5628 203.48 32.6223 203.766 32.6719C203.963 32.7016 204.24 32.7809 204.378 32.8503C204.921 33.1278 204.921 33.1079 204.951 39.0148C204.971 42.0079 204.951 44.6541 204.921 44.892C204.833 45.4965 204.526 45.8137 203.954 45.8732C203.549 45.9227 203.489 45.9524 203.489 46.1606V46.3984H205.959H208.428V46.1507C208.428 45.9227 208.388 45.9029 208.033 45.9029C207.805 45.9029 207.509 45.8434 207.351 45.7641C206.867 45.5065 206.808 45.2488 206.768 42.9395L206.729 40.8087L206.966 40.9871C207.786 41.5917 209.03 41.8791 210.205 41.7304C211.391 41.5817 212.112 41.225 212.902 40.3627C214.235 38.9355 214.531 36.3389 213.593 34.4063C213.208 33.6134 212.27 32.7115 211.539 32.4241C210.877 32.1763 209.613 32.0772 208.991 32.2259ZM210.452 33.5539C211.647 34.099 212.28 35.3478 212.28 37.1516C212.28 38.5787 211.973 39.55 211.292 40.2933C210.759 40.8781 210.176 41.0961 209.247 41.0862C208.645 41.0763 208.428 41.0267 207.865 40.7393C206.739 40.1744 206.749 40.1942 206.749 37.211C206.749 34.5252 206.768 34.3964 207.262 33.9504C208.052 33.2269 209.356 33.0584 210.452 33.5539Z" fill="#9B9996"/>
<path d="M217.634 32.3173C216.765 32.5453 215.896 32.9913 215.856 33.239C215.807 33.4769 216.39 34.6959 216.548 34.6959C216.617 34.686 216.844 34.4284 217.042 34.1013C217.249 33.7643 217.575 33.3976 217.822 33.239C218.187 33.0012 218.335 32.9615 218.958 32.9615C219.728 32.9615 220.014 33.0904 220.41 33.6256C220.627 33.9229 220.854 35.3798 220.745 35.8159C220.647 36.1925 220.4 36.3213 219.027 36.7178C217.15 37.2728 216.745 37.4512 216.232 37.9566C215.501 38.6603 215.363 39.6018 215.847 40.5533C216.577 42.0102 218.938 42.1886 220.36 40.9002L220.755 40.5434L220.963 40.8903C221.328 41.5246 221.417 41.5345 225.614 41.5345C229.219 41.5345 229.367 41.5246 229.367 41.3462C229.367 41.2074 229.269 41.1479 228.953 41.0984C227.935 40.9299 227.856 40.6425 227.906 37.2034L227.935 34.7158L228.242 34.3292C228.884 33.5265 229.97 33.1201 230.958 33.3084C231.609 33.4373 231.965 33.6949 232.251 34.2797C232.469 34.7356 232.479 34.805 232.479 37.5899C232.479 40.3154 232.469 40.4443 232.271 40.7119C232.123 40.9101 231.935 41.0191 231.609 41.0786C231.254 41.1479 231.145 41.2173 231.145 41.3561C231.145 41.5246 231.284 41.5345 233.565 41.5345C235.916 41.5345 235.985 41.5246 235.985 41.3362C235.985 41.1876 235.916 41.138 235.718 41.138C235.56 41.138 235.274 41.0885 235.076 41.029C234.404 40.8506 234.375 40.692 234.296 37.4214C234.237 34.5869 234.197 34.2698 233.861 33.5958C232.913 31.7128 230.246 31.6137 228.36 33.3877L227.886 33.8337V33.021V32.2182H226.158C224.528 32.2182 224.429 32.2281 224.429 32.4065C224.429 32.6047 224.676 32.7138 225.13 32.7138C225.279 32.7138 225.506 32.803 225.644 32.912C226.059 33.249 226.128 33.8535 226.088 37.253C226.059 40.7119 226.029 40.8407 225.338 41.029C224.854 41.1678 223.649 41.1678 223.254 41.029C222.651 40.8209 222.612 40.6227 222.543 37.3719C222.484 34.3491 222.454 34.1013 222.019 33.3679C221.377 32.2678 219.511 31.8218 217.634 32.3173ZM220.775 37.9864C220.775 38.6603 220.726 39.364 220.676 39.5622C220.489 40.2361 219.698 40.7416 218.829 40.7416C217.871 40.7416 217.358 40.1172 217.437 39.0369C217.486 38.3927 217.693 38.026 218.197 37.7287C218.444 37.58 220.429 36.8367 220.706 36.7871C220.745 36.7871 220.775 37.3223 220.775 37.9864Z" fill="#9B9996"/>
<path d="M133.375 32.5796C133.375 32.7878 133.424 32.8274 133.671 32.8274C133.859 32.8274 134.086 32.9364 134.313 33.1446C134.728 33.5014 135.034 34.1257 137.069 38.6451L138.412 41.6481L138.106 42.2824C137.385 43.7591 136.219 44.7601 134.57 45.2755C134.076 45.4341 133.671 45.6125 133.671 45.6719C133.671 45.7314 133.849 46.0585 134.066 46.3855L134.452 47L134.916 46.7919C135.686 46.4648 136.693 45.7413 137.296 45.0674C138.333 43.9375 138.718 43.0753 140.782 37.1188C141.701 34.4825 141.987 33.769 142.284 33.4221C142.54 33.1148 142.985 32.8274 143.212 32.8274C143.4 32.8274 143.449 32.7779 143.449 32.5796V32.3319H141.77H140.091V32.5697C140.091 32.7481 140.16 32.8175 140.407 32.8671C140.881 32.9662 141.079 33.1941 141.079 33.6599C141.079 34.0365 139.321 39.4677 139.202 39.4677C139.153 39.4677 137.227 34.9285 136.98 34.2249C136.792 33.6897 136.792 33.1842 136.96 33.0355C137.039 32.9761 137.237 32.8968 137.414 32.8671C137.661 32.8175 137.721 32.758 137.701 32.5896C137.671 32.3814 137.622 32.3814 135.528 32.3517L133.375 32.3319V32.5796Z" fill="#9B9996"/>
<path d="M235.398 32.564C235.398 32.7622 235.458 32.8019 235.784 32.8614C236.485 32.9704 236.692 33.3371 238.954 38.4015C240.06 40.8991 240.346 41.6127 240.287 41.8208C240.169 42.3362 239.448 43.4065 238.855 43.9616C238.154 44.6058 237.561 44.9328 236.406 45.3094L235.596 45.577L235.853 46.0627C235.991 46.3303 236.198 46.6474 236.307 46.7663L236.514 46.9844L237.166 46.6573C238.608 45.9239 239.586 44.9626 240.327 43.5255C240.85 42.5344 240.939 42.2866 242.519 37.8366C243.27 35.7256 244.001 33.8128 244.139 33.5948C244.406 33.1884 244.909 32.8217 245.206 32.8217C245.314 32.8217 245.373 32.7424 245.373 32.5739V32.3262H243.744H242.114V32.564C242.114 32.7424 242.183 32.8118 242.411 32.8514C242.825 32.9406 243.102 33.2578 243.102 33.6542C243.102 33.9714 241.393 39.2241 241.235 39.3926C241.146 39.4818 238.895 34.2092 238.806 33.6939C238.747 33.3866 238.776 33.2875 238.993 33.0794C239.132 32.9307 239.329 32.8217 239.448 32.8217C239.596 32.8217 239.645 32.7622 239.645 32.5739V32.3262H237.522H235.398V32.564Z" fill="#9B9996"/>
</svg>
