<svg width="304" height="73" viewBox="0 0 304 73" fill="none" xmlns="http://www.w3.org/2000/svg">
<path d="M205.909 13.5292C208.037 15.8396 209.933 19.2554 210.541 21.8753C210.607 22.1627 210.673 22.428 210.679 22.4667C210.69 22.4998 211.143 22.8591 211.685 23.2626C212.862 24.1414 214.509 25.4403 215.681 26.4297C216.571 27.1758 218.334 28.7234 218.334 28.7566C218.334 28.7621 218.179 28.7234 217.991 28.6682C217.079 28.3807 215.758 28.0933 214.548 27.9165C214.017 27.8391 213.52 27.817 212.027 27.817H210.176L210.353 27.3195C210.822 26.0041 210.95 24.4675 210.729 22.8315L210.69 22.5385L209.993 22.0521C206.528 19.6147 202.698 17.3319 198.712 15.3311C196.916 14.4247 194.539 13.3082 194.678 13.4353C194.694 13.4463 194.855 13.579 195.037 13.7227C197.093 15.3753 199.133 18.1223 200.918 21.6487C202.438 24.6554 203.549 27.6291 204.383 30.9343C204.544 31.5865 204.693 32.1282 204.704 32.1392C204.715 32.1558 205.135 32.0618 205.632 31.9402C209.28 31.0338 212.895 30.8735 216.676 31.4428C218.218 31.6749 220.18 32.1392 221.661 32.6146L222.424 32.8633L222.098 32.493C221.921 32.294 221.015 31.3765 220.086 30.4534C219.157 29.5359 218.406 28.7842 218.417 28.7842C218.478 28.7842 219.671 29.2209 220.174 29.4254C220.76 29.6631 222.275 30.3982 222.634 30.6193L222.822 30.7353L222.739 30.575C222.562 30.2379 221.191 28.2205 220.561 27.3748C216.908 22.4667 211.878 17.5586 206.865 13.9935C205.362 12.9213 205.345 12.9157 205.909 13.5292Z" fill="#9B9996"/>
<path d="M152.245 29.0228C149.852 29.4539 148.41 30.8523 148.26 32.8863C148.183 33.8535 148.509 34.7545 149.183 35.4785C149.808 36.1473 150.433 36.5563 152.163 37.4241C154.036 38.3637 154.567 38.8004 154.871 39.6737C155.125 40.3922 154.976 41.4534 154.517 42.1609C153.87 43.1724 152.561 43.598 151.201 43.2497C150.582 43.0895 150.151 42.8463 149.67 42.3654C149.167 41.8679 148.808 41.2821 148.592 40.6077C148.509 40.3424 148.421 40.1048 148.399 40.0771C148.376 40.0495 148.266 40.0495 148.15 40.0661L147.945 40.1048L147.984 40.9449C148.078 43.1392 148.083 43.2 148.183 43.1668C148.238 43.1503 148.62 43.305 149.073 43.5206C150.46 44.1894 151.212 44.3828 152.467 44.3828C153.163 44.3828 153.373 44.3607 153.76 44.2557C155.573 43.7638 156.96 42.4096 157.325 40.7791C157.435 40.2706 157.441 39.436 157.325 38.922C157.043 37.6286 156.186 36.7221 154.263 35.6775C153.915 35.484 153.307 35.1579 152.909 34.9424C151.494 34.1796 150.93 33.743 150.626 33.1682C150.493 32.9194 150.477 32.8255 150.477 32.3612C150.477 31.8859 150.493 31.8029 150.648 31.4768C151.074 30.5759 151.781 30.1448 152.826 30.1448C153.793 30.1448 154.484 30.4322 155.18 31.1176C155.606 31.5432 155.799 31.8416 156.081 32.5491C156.142 32.6928 156.164 32.7039 156.347 32.6762C156.452 32.6541 156.557 32.632 156.568 32.6154C156.579 32.6044 156.562 32.0019 156.524 31.2723C156.468 30.2222 156.441 29.9348 156.369 29.8518C156.319 29.7966 156.114 29.6694 155.916 29.5644C154.821 29.0172 153.428 28.8127 152.245 29.0228Z" fill="#9B9996"/>
<path d="M88.9149 29.0628C87.323 29.2452 85.897 29.7372 84.7142 30.522C84.1062 30.9255 83.1113 31.9093 82.7244 32.4897C82.122 33.3961 81.6743 34.5182 81.5084 35.5407C81.4034 36.1929 81.4034 37.4255 81.5084 38.0224C81.9064 40.3162 83.2661 42.2396 85.2669 43.334C87.511 44.561 90.1364 44.7655 92.806 43.9254C93.624 43.6656 94.8511 43.1129 95.0777 42.9029C95.1329 42.8476 95.1827 42.5049 95.249 41.5985C95.3043 40.9186 95.3485 40.2388 95.3485 40.084C95.354 39.8077 95.3485 39.7966 95.1882 39.7745C95.0335 39.7524 95.0113 39.7745 94.7626 40.2222C93.9114 41.7366 92.8779 42.6099 91.4574 43.0024C91.0705 43.1074 90.8825 43.124 89.9374 43.124C88.948 43.1184 88.8154 43.1074 88.3069 42.9747C85.9855 42.3557 84.4157 40.482 83.9294 37.7681C83.8078 37.0828 83.8078 35.817 83.9349 35.1704C84.2057 33.7665 84.6921 32.7771 85.5433 31.8872C86.5271 30.8592 87.7542 30.3009 89.3018 30.1738C91.7171 29.9804 93.5909 31.0195 94.6576 33.1364C94.7681 33.3575 94.8676 33.5399 94.8787 33.5399C94.8842 33.5399 94.9727 33.5122 95.0666 33.4791L95.2435 33.4183L95.2158 33.0535C95.1993 32.849 95.1606 32.1525 95.1274 31.5003C95.0998 30.8481 95.0611 30.2954 95.0445 30.2733C95.0003 30.1959 93.613 29.6819 92.911 29.4774C92.5407 29.3668 91.9438 29.2287 91.5955 29.1679C90.866 29.0407 89.5671 28.991 88.9149 29.0628Z" fill="#9B9996"/>
<path d="M120.247 32.168C119.336 32.1845 118.435 32.2066 118.247 32.2122C117.909 32.2177 117.898 32.2232 117.898 32.3669C117.898 32.4443 117.932 32.5549 117.976 32.5991C118.202 32.8644 118.202 32.8257 118.219 38.6458L118.236 44.2227L120.54 44.195C123.022 44.1729 123.315 44.1453 124.277 43.8413C126.405 43.178 127.958 41.553 128.516 39.4196C128.66 38.8613 128.715 37.8499 128.627 37.2419C128.544 36.6726 128.24 35.733 127.98 35.2687C127.289 34.003 126.101 33.0302 124.669 32.5549C123.547 32.1845 122.79 32.1182 120.247 32.168ZM123.343 33.594C123.586 33.6548 124.023 33.8261 124.31 33.9643C124.752 34.1798 124.912 34.3014 125.305 34.6994C126.222 35.6279 126.631 36.855 126.554 38.4357C126.449 40.525 125.664 41.9455 124.227 42.6364C123.409 43.0398 123 43.1117 121.508 43.1449L120.22 43.1725V38.2976V33.4226L121.563 33.4503C122.696 33.4724 122.967 33.4945 123.343 33.594Z" fill="#9B9996"/>
<path d="M179.699 32.1625C178.577 32.2564 177.51 32.8257 176.963 33.6382C176.631 34.1191 176.499 34.5779 176.499 35.2466C176.499 36.1697 176.709 36.7169 177.322 37.3635C177.781 37.8499 178.262 38.165 179.671 38.8835C180.605 39.3588 180.898 39.5357 181.175 39.7955C181.849 40.4256 181.976 41.2215 181.55 42.1335C181.351 42.5646 181.07 42.852 180.655 43.0565C180.301 43.2334 180.263 43.2389 179.693 43.2279C178.687 43.2113 178.151 42.9902 177.554 42.349C177.189 41.9511 177.084 41.7797 176.78 41.0944C176.62 40.7406 176.604 40.7241 176.46 40.7572C176.377 40.7793 176.294 40.807 176.277 40.8291C176.261 40.8457 176.261 41.4094 176.283 42.0782C176.327 43.4821 176.266 43.3384 177.024 43.7253C177.808 44.1177 178.466 44.2946 179.345 44.3554C180.567 44.4328 181.877 43.9353 182.672 43.0786C183.319 42.3877 183.579 41.7245 183.59 40.7517C183.595 39.7292 183.336 39.0493 182.689 38.4027C182.219 37.9328 181.899 37.7228 180.528 37.0153C179.235 36.3465 178.864 36.1255 178.571 35.827C178.273 35.5285 178.157 35.2411 178.157 34.7824C178.157 34.1467 178.439 33.688 179.013 33.384C179.268 33.2458 179.34 33.2348 179.986 33.2348C180.672 33.2348 180.677 33.2348 181.097 33.4448C181.711 33.7433 182.203 34.3347 182.435 35.0532C182.462 35.1361 182.507 35.1472 182.645 35.1195C182.739 35.1029 182.827 35.0753 182.838 35.0698C182.844 35.0587 182.816 34.5557 182.772 33.9533C182.717 33.2016 182.672 32.8423 182.623 32.8092C181.926 32.3338 180.754 32.0796 179.699 32.1625Z" fill="#9B9996"/>
<path d="M188.783 32.1356C187.163 32.2406 185.781 33.2852 185.499 34.6283C185.361 35.2916 185.472 36.1152 185.781 36.701C186.008 37.1322 186.555 37.6849 187.124 38.0552C187.368 38.2155 188.086 38.6134 188.722 38.934C189.672 39.4204 189.938 39.5807 190.192 39.8349C190.623 40.255 190.767 40.6253 190.734 41.2554C190.712 41.6368 190.678 41.7695 190.507 42.1232C190.258 42.6206 189.877 42.9854 189.457 43.1347C189.131 43.2452 188.313 43.2563 187.849 43.1513C186.948 42.9467 186.174 42.2006 185.748 41.1172C185.593 40.7138 185.593 40.7138 185.417 40.7525C185.323 40.769 185.234 40.7967 185.223 40.8077C185.212 40.8133 185.223 41.3881 185.245 42.0735L185.284 43.3226L185.516 43.4663C185.936 43.7371 186.655 44.0411 187.196 44.1848C187.893 44.3672 189.07 44.3949 189.639 44.2346C191.452 43.7316 192.569 42.383 192.569 40.6917C192.569 39.8073 192.281 39.0667 191.701 38.4476C191.259 37.9833 190.822 37.6959 189.319 36.9166C187.981 36.2146 187.749 36.0654 187.445 35.7227C186.931 35.1424 186.986 34.2635 187.567 33.6611C187.931 33.2852 188.269 33.1802 189.031 33.2134C189.518 33.23 189.606 33.2521 189.988 33.44C190.596 33.7385 191.087 34.3299 191.32 35.0484C191.347 35.1313 191.391 35.1424 191.53 35.1147C191.624 35.0982 191.712 35.0705 191.718 35.065C191.729 35.0539 191.701 34.5565 191.657 33.9485C191.601 33.2023 191.552 32.8375 191.508 32.8044C191.264 32.6386 190.745 32.4119 190.385 32.3125C189.965 32.1964 189.186 32.1135 188.783 32.1356Z" fill="#9B9996"/>
<path d="M97.4542 32.2535C97.3768 32.3308 97.41 32.4801 97.5648 32.7509L97.714 33.0217L97.7306 38.6152L97.7416 44.2143H98.7365H99.7314V41.4728V38.7313L100.301 38.7534C100.798 38.77 100.898 38.7921 101.157 38.9358C101.6 39.1735 101.793 39.4388 102.959 41.4009C103.877 42.9375 104.103 43.2636 104.441 43.5897C104.955 44.0706 105.54 44.2695 106.436 44.2695C106.889 44.264 107.923 44.1092 108.006 44.0319C108.022 44.0153 107.923 43.9711 107.796 43.9379C106.795 43.6892 106.386 43.2304 104.535 40.2347C104.015 39.389 103.816 39.1237 103.407 38.7092L102.904 38.2062L103.269 38.0349C103.993 37.6922 104.595 37.0566 104.872 36.327C105.026 35.929 105.076 35.1442 104.988 34.6965C104.822 33.9116 104.269 33.2483 103.424 32.8338C102.86 32.5574 102.279 32.4027 101.511 32.3364C100.732 32.2645 97.504 32.1982 97.4542 32.2535ZM101.24 33.381C102.268 33.5468 102.921 34.2598 102.981 35.2768C103.053 36.4596 102.495 37.3163 101.439 37.6424C101.191 37.7198 100.936 37.7475 100.444 37.7475H99.7867L99.7977 35.5808L99.8143 33.4142L99.9525 33.3755C100.163 33.3202 100.876 33.3202 101.24 33.381Z" fill="#9B9996"/>
<path d="M108.658 32.3503C108.675 32.4166 108.747 32.5548 108.818 32.6598C108.885 32.7648 108.968 32.9417 109.001 33.0522C109.034 33.1793 109.056 35.2189 109.056 38.7397V44.2227L112.411 44.2116L115.772 44.195L115.982 43.2057C116.098 42.664 116.181 42.1887 116.164 42.1444C116.103 41.9897 115.932 42.0726 115.705 42.3655C115.285 42.9127 114.782 43.1006 113.588 43.1559C113.179 43.1725 112.428 43.167 111.919 43.1449L110.991 43.1062V40.6521V38.198H112.704H114.417V37.6453V37.0926H112.704H110.991V35.2078V33.3286L112.5 33.3451L114.003 33.3617L114.285 33.511C114.6 33.6768 115.081 34.1742 115.081 34.3345C115.081 34.4119 115.119 34.4395 115.219 34.4395C115.357 34.4395 115.357 34.4395 115.357 33.9255C115.357 33.6381 115.341 33.1406 115.318 32.8201L115.285 32.2287H111.952H108.625L108.658 32.3503Z" fill="#9B9996"/>
<path d="M130.5 32.3447C130.5 32.4111 130.561 32.5327 130.638 32.6211C130.71 32.7095 130.798 32.8753 130.832 32.9914C130.865 33.1241 130.887 35.0862 130.887 38.7065V44.2227H131.882H132.877V38.2257V32.2287H131.688C130.517 32.2287 130.5 32.2287 130.5 32.3447Z" fill="#9B9996"/>
<path d="M134.711 33.2582V34.3083H134.866C134.982 34.3083 135.043 34.2641 135.125 34.1093C135.181 34.0043 135.324 33.8385 135.435 33.7501C135.822 33.4461 135.932 33.424 137.198 33.424H138.359V38.8682V44.3125H139.381H140.404V38.8682V33.424H141.664C142.869 33.424 142.93 33.4295 143.201 33.5566C143.494 33.6948 143.698 33.9048 143.753 34.1259C143.781 34.2144 143.825 34.2531 143.93 34.2531H144.068L144.035 33.4958C144.013 33.0813 143.997 32.6225 143.997 32.4733V32.208H139.354H134.711V33.2582Z" fill="#9B9996"/>
<path d="M158.969 32.3319C158.969 32.3927 159.041 32.5364 159.129 32.6469C159.217 32.7574 159.317 32.9343 159.35 33.0393C159.394 33.172 159.411 34.2774 159.411 36.6873C159.411 38.5886 159.439 40.396 159.466 40.6945C159.61 42.1536 160.174 43.1762 161.163 43.762C162.246 44.3977 164.253 44.558 165.59 44.1047C166.209 43.8947 166.524 43.7178 166.944 43.3309C167.552 42.7727 167.912 42.0376 168.028 41.1145C168.061 40.8879 168.111 39.1579 168.138 37.2731C168.172 35.3884 168.21 33.4815 168.227 33.0283L168.26 32.2158H167.459H166.652V32.354C166.652 32.4313 166.701 32.5695 166.768 32.6524C166.967 32.9233 166.994 33.4981 166.967 37.3726C166.95 40.6447 166.933 41.0648 166.851 41.3577C166.563 42.336 166.01 42.8888 165.076 43.1319C164.689 43.2314 163.694 43.2425 163.269 43.1541C162.595 43.0104 162.075 42.6069 161.81 42.0265C161.495 41.3411 161.495 41.3467 161.473 36.5933L161.45 32.2158H160.207C158.996 32.2158 158.969 32.2158 158.969 32.3319Z" fill="#9B9996"/>
<path d="M170.852 32.3945C170.852 32.4829 170.879 32.5603 170.912 32.5603C170.94 32.5603 171.023 32.6764 171.089 32.8201L171.211 33.0854L171.227 38.6512L171.244 44.2227H172.206H173.173V38.2257V32.2287H172.012H170.852V32.3945Z" fill="#9B9996"/>
<path d="M194.391 32.3392C194.391 32.3945 194.451 32.5382 194.529 32.6487C194.606 32.7593 194.689 32.9417 194.722 33.0522C194.755 33.1793 194.778 35.2189 194.778 38.7342V44.2227H198.116C201.25 44.2227 201.46 44.2171 201.487 44.1232C201.587 43.775 201.902 42.161 201.88 42.1168C201.819 42.0228 201.587 42.0615 201.548 42.1776C201.526 42.2384 201.393 42.4097 201.25 42.559C200.747 43.0785 200.056 43.2057 198.044 43.1504C197.331 43.1338 196.729 43.1006 196.701 43.073C196.673 43.0454 196.662 41.9455 196.668 40.6245L196.684 38.2257L198.387 38.2091L200.084 38.198V37.6453V37.0926H198.37H196.657L196.668 35.2244L196.684 33.3617H198.232H199.78L200.078 33.5275C200.41 33.7099 200.614 33.9476 200.697 34.2406C200.736 34.3787 200.786 34.4395 200.857 34.4395C200.913 34.4395 200.973 34.4229 200.984 34.3953C201.001 34.3732 201.029 33.8758 201.051 33.2899L201.089 32.2287H197.74C194.451 32.2287 194.391 32.2287 194.391 32.3392Z" fill="#9B9996"/>
</svg>
