<svg width="304" height="73" viewBox="0 0 304 73" fill="none" xmlns="http://www.w3.org/2000/svg">
<path fill-rule="evenodd" clip-rule="evenodd" d="M198.999 32.9904L198.674 36.2171H197.381C195.225 36.2171 194.147 37.938 194.147 39.5516V46.9721H190.374V32.9904H193.931L194.039 34.7112C194.794 33.5282 196.087 32.9904 197.705 32.9904H198.999ZM172.801 46.9716H169.028V39.5511C169.028 38.0453 168.92 36.1093 166.656 36.1093C164.608 36.1093 163.745 37.6147 163.745 39.3361V46.9716H159.972V32.9904H163.529V34.8185C164.284 33.6355 165.686 32.6675 167.735 32.6675C171.615 32.6675 172.801 35.3564 172.801 38.153V46.9716H172.801ZM158.356 43.6375L158.14 46.8638C157.169 47.0793 156.414 47.1871 155.445 47.1871C151.887 47.1871 150.809 45.5735 150.809 42.3477V29.119H154.582V32.9909H158.356L158.14 36.2176H154.582V42.0249C154.582 43.3152 154.906 44.0681 156.308 44.0681C156.847 44.0676 157.493 43.9609 158.356 43.6375ZM149.623 32.9904L149.3 36.2171H148.222C146.173 36.2171 145.095 37.938 145.095 39.5516V46.9721H141.322V32.9904H144.88L144.987 34.7112C145.742 33.5282 147.035 32.9904 148.653 32.9904H149.623ZM124.289 45.3579C121.702 46.757 119.115 47.5099 115.773 47.5099C109.52 47.2944 104.992 43.4225 104.992 36.8622C104.992 30.302 109.52 26.1073 115.773 26C118.899 26 121.702 26.7529 123.966 28.6889L121.271 31.3777C119.869 30.302 117.929 29.5496 115.557 29.6568C111.569 29.8719 109.197 32.668 109.197 36.6477C109.089 40.8419 111.677 43.7458 115.773 43.8536C117.713 43.9614 119.115 43.638 120.301 43.1007V38.7987H115.988L116.312 35.2491H124.289V45.3579ZM188.649 41.2715H178.3C178.623 43.1002 180.024 44.1754 181.749 44.1754C183.474 44.2832 184.444 43.7458 185.631 42.455L188.11 44.3905C186.384 46.5415 184.228 47.2944 181.858 47.2944C177.653 47.2944 174.527 44.3905 174.527 39.9807C174.527 35.5714 177.653 32.6675 181.75 32.6675C186.17 32.6675 188.649 35.3564 188.649 40.1963V41.2715ZM184.876 38.3676C184.768 36.6472 183.474 35.4642 181.641 35.5714C179.809 35.6787 178.514 36.8622 178.3 38.3676H184.876ZM138.95 37.8297V46.9711H135.608L135.501 45.573C134.531 46.8633 132.806 47.2944 131.081 47.2944C128.601 47.2944 126.122 46.0041 126.122 43.1002C126.014 38.4749 131.296 38.153 134.638 38.153H135.285V37.9375C135.285 36.4316 134.315 35.5714 132.375 35.5714C130.973 35.5714 129.679 36.1093 128.601 37.0768L126.445 34.8185C128.386 33.2054 130.434 32.6675 132.698 32.6675C137.01 32.6675 138.95 34.7112 138.95 37.8297ZM135.285 40.8414H134.746C133.021 40.8414 129.787 40.9492 129.895 42.7768C129.895 45.4652 135.285 44.6055 135.285 41.4865L135.285 40.8414Z" fill="#9B9996"/>
</svg>
