<svg width="304" height="73" viewBox="0 0 304 73" fill="none" xmlns="http://www.w3.org/2000/svg">
<path d="M152.241 46.2011H153.937V27.5572H152.241V46.2011ZM175.597 27.5572H181.01V29.111H179.169V46.2008H177.465V29.111H175.598L175.597 27.5572ZM150.691 27.5572V46.2011H148.915L146.375 34.8766V46.2011H144.709V27.5572H146.241L149.025 39.9047V27.5572H150.691ZM113.811 27.5572V46.2011H112.146V30.2196L110.089 46.2011H108.7L106.678 30.2196V46.2011H105V27.5572H107.837L109.462 38.7961L110.995 27.5572H113.811ZM134.468 46.2057C135.834 44.3533 136.57 42.1113 136.566 39.8097C136.566 33.8509 131.735 29.0198 125.776 29.0198C119.816 29.0198 114.984 33.8509 114.984 39.8097C114.981 42.1112 115.715 44.3532 117.081 46.206H119.325C117.696 44.5632 116.689 42.3067 116.689 39.8097C116.689 34.7924 120.757 30.7239 125.776 30.7239C130.793 30.7239 134.862 34.7924 134.862 39.8097C134.862 42.3032 133.857 44.5632 132.231 46.206H134.468M184.898 40.3158L183.77 30.0375L182.731 40.3158H184.898ZM187.149 46.2011H185.491L185.053 42.0011H182.572L182.167 46.2011H180.476L182.387 27.5572H184.972L187.149 46.2011ZM166.887 43.8312C166.887 44.6725 166.394 45.1006 165.828 45.1006C165.262 45.1006 164.769 44.6725 164.769 43.8312V29.7504C164.769 28.9109 165.262 28.4817 165.828 28.4817C166.394 28.4817 166.887 28.9109 166.887 29.7504L166.884 30.4235V33.9386H168.589V31.2282L168.585 30.4458C168.573 28.1221 167.665 27.0153 165.769 27.0153C164.08 27.0153 162.981 28.2126 162.981 30.0511L162.982 30.7354V42.4062L162.981 43.1608C162.981 45.5485 163.91 46.7145 165.81 46.7145C167.706 46.7145 168.589 45.5698 168.589 43.1114V36.3287H165.458V37.9611H166.884V43.213L166.887 43.8312ZM173.879 43.3839V38.5368L169.992 35.6344V30.2182C169.992 28.0894 170.951 27 172.828 27C174.731 27 175.598 28.0811 175.61 30.4737L175.614 31.2171V33.964H173.879V30.2791L173.873 29.7507C173.873 28.9112 173.385 28.482 172.826 28.482C172.265 28.482 171.776 28.9112 171.776 29.7507V34.8262L175.614 37.7238V43.3296C175.614 45.5224 174.639 46.695 172.816 46.695C170.969 46.695 170.008 45.5879 169.997 43.4511L169.992 42.7132V39.0648H171.776V43.8308C171.776 44.6721 172.265 45.1002 172.826 45.1002C173.385 45.1002 173.874 44.6721 173.874 43.8308L173.879 43.3839ZM139.401 29.025V36.4074H139.999C141.097 36.4074 141.613 35.9038 141.613 34.8335V31.034C141.613 29.5036 141.259 29.025 140.126 29.025H139.401ZM143.678 46.2011H141.979C141.746 45.5729 141.644 44.9843 141.633 44.1956L141.62 43.2412L141.613 42.7588V39.1188C141.613 38.3548 141.149 38.0074 140.612 38.0074H139.401V46.2008H137.736V27.5576H139.907C142.347 27.5576 143.286 28.4493 143.286 30.8353V34.3354C143.286 35.9038 143.023 36.5623 141.796 37.0148L141.848 37.0322C143.006 37.3705 143.266 37.8104 143.279 39.2803L143.286 39.9573V43.3613C143.286 44.6011 143.379 45.2732 143.678 46.2015M189.256 29.025V36.4074H189.855C190.954 36.4074 191.47 35.9038 191.47 34.8335V31.034C191.47 29.5036 191.116 29.025 189.981 29.025H189.256ZM193.533 46.2011H191.834C191.601 45.5729 191.499 44.9843 191.489 44.1956L191.474 43.2412L191.47 42.7588V39.1188C191.47 38.3548 191.004 38.0074 190.466 38.0074H189.256V46.2008H187.591V27.5576H189.763C192.203 27.5576 193.141 28.4493 193.141 30.8353V34.3354C193.141 35.9038 192.879 36.5623 191.652 37.0148L191.703 37.0322C192.86 37.3705 193.122 37.8104 193.135 39.2803L193.141 39.9573V43.3613C193.141 44.6011 193.235 45.2732 193.533 46.2015M161.443 27.5572V46.2011H159.666L157.128 34.8766V46.2011H155.462V27.5572H156.995L159.777 39.9047V27.5572H161.443ZM194.998 29.441C194.998 28.9416 195.196 28.4626 195.549 28.1093C195.902 27.756 196.381 27.5572 196.88 27.5565C197.38 27.5569 197.859 27.7555 198.212 28.1088C198.565 28.4621 198.764 28.9411 198.764 29.4406C198.764 29.9402 198.565 30.4194 198.212 30.7728C197.859 31.1261 197.38 31.3249 196.88 31.3254C196.381 31.3246 195.902 31.1257 195.549 30.7724C195.196 30.419 194.998 29.94 194.998 29.4406V29.441ZM194.781 29.441C194.782 29.9976 195.003 30.5313 195.396 30.9249C195.79 31.3186 196.324 31.5401 196.88 31.5408C197.437 31.5401 197.971 31.3186 198.365 30.9249C198.758 30.5312 198.98 29.9974 198.981 29.4406C198.98 28.8838 198.758 28.3501 198.364 27.9565C197.971 27.5628 197.437 27.3414 196.88 27.3408C196.323 27.3414 195.79 27.5629 195.396 27.9565C195.003 28.3502 194.781 28.884 194.781 29.4406" fill="#9B9996"/>
<path d="M196.423 29.3714H197.043C197.299 29.3714 197.479 29.2893 197.479 29.0133C197.479 28.7394 197.299 28.6555 197.043 28.6555H196.423V29.3714ZM196.149 28.416H197.085C197.412 28.416 197.752 28.5413 197.752 29.0133C197.752 29.2782 197.633 29.5336 197.272 29.5925L197.843 30.4887H197.512L196.953 29.6095H196.423V30.4887H196.148V28.416" fill="#9B9996"/>
</svg>
