<svg width="304" height="73" viewBox="0 0 304 73" fill="none" xmlns="http://www.w3.org/2000/svg">
<path d="M193.75 33.7205C193.75 41.3249 193.72 40.7485 194.135 41.2086C194.388 41.4918 194.731 41.6738 195.191 41.7749C195.576 41.8558 196.572 41.8508 196.936 41.7598L197.214 41.694V41.1126V40.5311L196.885 40.5463C196.471 40.5665 195.95 40.4806 195.743 40.3491C195.399 40.1367 195.419 40.5968 195.419 33.4323V26.9554H194.585H193.75V33.7205Z" fill="#9B9996"/>
<path d="M157.695 27.1897C155.637 27.5538 154.307 28.9998 154.307 30.8655C154.307 31.7352 154.565 32.4329 155.111 33.0245C155.733 33.7071 156.653 34.2026 158.63 34.9205C160.653 35.6537 161.214 35.9368 161.755 36.5031C162.134 36.9025 162.296 37.2565 162.331 37.7621C162.367 38.2677 162.286 38.6722 162.068 39.1171C161.755 39.7542 161.123 40.1991 160.273 40.3812C159.717 40.4975 158.549 40.457 158.099 40.3003C157.053 39.9463 156.335 39.289 155.778 38.1767C155.647 37.9087 155.526 37.666 155.515 37.6357C155.49 37.5649 153.953 37.9643 153.953 38.0402C153.953 38.0604 154.09 38.3537 154.262 38.6823C155.025 40.189 156.016 41.1446 157.255 41.5694C157.968 41.8171 158.509 41.8828 159.515 41.8525C161.017 41.8019 161.942 41.5036 162.842 40.7654C163.373 40.3306 163.853 39.4711 164.02 38.652C164.172 37.934 164.136 37.0492 163.939 36.5082C163.479 35.2441 162.478 34.4958 160.172 33.6717C157.821 32.8374 157.321 32.62 156.78 32.1902C156.304 31.8161 156.026 31.2801 156.026 30.7492C156.026 30.3903 156.163 29.8442 156.309 29.5964C156.618 29.0656 157.214 28.6863 157.912 28.5701C158.468 28.474 159.348 28.5296 159.849 28.6914C160.804 28.9998 161.628 29.8037 161.912 30.7139C161.972 30.8959 162.028 30.997 162.078 30.997C162.265 30.997 163.489 30.8301 163.519 30.7998C163.54 30.7846 163.459 30.5268 163.342 30.2335C162.518 28.1807 160.88 27.0886 158.655 27.1088C158.362 27.1088 157.932 27.1493 157.695 27.1897Z" fill="#9B9996"/>
<path d="M87.7812 34.4687V41.6484H88.6155H89.4498L89.4599 35.0957L89.4751 28.543L91.4469 35.0957L93.4188 41.6484L94.0761 41.6383L94.7284 41.6232L96.68 35.1513C97.7519 31.5918 98.6469 28.6441 98.662 28.6036C98.6823 28.5632 98.6974 31.4806 98.6974 35.0856L98.7025 41.6484H99.5367H100.371V34.4687V27.289H98.9856H97.6002L97.5446 27.4508C97.5143 27.5419 96.7306 30.1306 95.7952 33.2047C94.8598 36.2738 94.0862 38.7968 94.0761 38.8069C94.0711 38.817 94.0357 38.7462 94.0053 38.6552C93.8486 38.1445 90.5621 27.3396 90.5621 27.3143C90.5621 27.2992 89.9352 27.289 89.1717 27.289H87.7812V34.4687Z" fill="#9B9996"/>
<path d="M166.798 27.5864C166.778 27.6016 166.763 28.3903 166.763 29.3308V31.0398H165.979H165.195V31.697V32.3543H165.979H166.758L166.773 36.4599C166.788 39.8678 166.803 40.6059 166.864 40.7677C166.955 41.0155 167.329 41.4301 167.567 41.5565C168.072 41.8144 169.078 41.9054 169.837 41.7689L170.201 41.6981V41.1116V40.52L169.705 40.5149C168.922 40.5099 168.598 40.3633 168.487 39.9588C168.451 39.8273 168.431 38.543 168.431 36.0554V32.3543H169.316H170.201V31.697V31.0398H169.316H168.431V29.2954V27.551H167.632C167.192 27.551 166.813 27.5662 166.798 27.5864Z" fill="#9B9996"/>
<path d="M106.225 30.9158C104.334 31.2748 103.07 32.6956 102.61 34.9658C102.473 35.6534 102.488 37.1601 102.635 37.8528C103.08 39.9208 104.238 41.2657 105.957 41.7157C106.538 41.8674 107.56 41.8724 108.166 41.7208C109.663 41.3517 110.755 40.2949 111.306 38.677C112.065 36.4472 111.61 33.6714 110.244 32.1748C109.754 31.6389 108.996 31.1838 108.252 30.9866C107.747 30.8501 106.746 30.8198 106.225 30.9158ZM107.691 32.2304C108.535 32.4327 109.152 33.0192 109.547 34.0001C109.976 35.0871 110.042 36.9225 109.698 38.2169C109.269 39.8247 108.146 40.6944 106.741 40.5073C105.689 40.3657 104.915 39.6376 104.521 38.4242C104.167 37.3219 104.157 35.527 104.501 34.3287C104.951 32.7461 106.255 31.8917 107.691 32.2304Z" fill="#9B9996"/>
<path d="M202.084 30.9025C201.619 30.9631 200.906 31.2109 200.492 31.4485C199.071 32.2878 198.312 33.9918 198.312 36.3631C198.312 38.1529 198.752 39.4878 199.663 40.4838C200.522 41.4293 201.933 41.94 203.419 41.849C204.886 41.763 206.013 41.1664 206.741 40.0996C206.888 39.8771 207.11 39.4726 207.11 39.417C207.11 39.3816 205.912 38.785 205.836 38.785C205.801 38.785 205.705 38.9164 205.619 39.0782C205.411 39.4827 204.84 40.0439 204.43 40.2411C203.601 40.6456 202.58 40.6456 201.751 40.2411C201.311 40.0288 200.77 39.4878 200.527 39.0125C200.426 38.8153 200.284 38.4563 200.214 38.2136C200.087 37.7839 199.956 36.7979 200.011 36.7069C200.027 36.6816 201.554 36.6614 203.652 36.6614H207.262V36.09C207.262 34.6996 207.075 33.6833 206.675 32.8744C206.483 32.4901 206.362 32.3182 206.028 31.9845C205.684 31.6356 205.543 31.5294 205.138 31.3373C204.259 30.9176 203.177 30.7659 202.084 30.9025ZM203.419 32.212C204.178 32.3333 204.673 32.6013 205.047 33.0968C205.366 33.5165 205.553 34.1384 205.609 34.9524L205.634 35.3468H202.833H200.032L200.062 35.1041C200.188 34.0069 200.497 33.2485 201.007 32.7884C201.569 32.2828 202.479 32.0654 203.419 32.212Z" fill="#9B9996"/>
<path d="M122.977 31.0164C121.132 31.5069 119.934 32.9934 119.625 35.1726C119.544 35.754 119.554 37.0686 119.645 37.6298C119.843 38.8382 120.277 39.7787 120.98 40.5169C121.521 41.0832 122.33 41.5534 123.089 41.7405C123.574 41.8618 124.363 41.8669 124.752 41.7455C125.394 41.5534 126.031 41.1438 126.471 40.6433L126.704 40.3753V41.5736C126.704 42.6253 126.694 42.8073 126.603 43.0955C126.395 43.7629 125.814 44.3241 125.086 44.5517C124.125 44.85 122.295 44.6376 120.975 44.0663C120.894 44.0309 120.889 44.0764 120.899 44.7539L120.914 45.482L121.243 45.5932C122.179 45.9067 123.65 46.0685 124.621 45.9724C126.532 45.7803 127.69 44.9208 128.18 43.323L128.296 42.9539L128.312 37.0231L128.327 31.0973H127.705H127.083L126.916 31.6383L126.749 32.1743L126.411 31.8355C126.021 31.4411 125.652 31.2035 125.187 31.0417C124.919 30.9507 124.727 30.9254 124.15 30.9102C123.529 30.8951 123.387 30.9102 122.977 31.0164ZM125.055 32.331C125.521 32.4776 126.052 32.8215 126.421 33.2259L126.704 33.5293V36.0978V38.6663L126.542 38.9899C126.193 39.6725 125.379 40.2995 124.605 40.4764C124.09 40.5978 123.352 40.5017 122.856 40.2489C122.573 40.1023 122.123 39.6674 121.931 39.3439C121.531 38.6866 121.294 37.559 121.294 36.3405C121.299 34.0956 121.991 32.7456 123.362 32.3057C123.796 32.1642 124.575 32.1793 125.055 32.331Z" fill="#9B9996"/>
<path d="M133.86 30.9572C132.955 31.1341 132.247 31.5032 131.635 32.1201C131.296 32.4589 130.851 33.0302 130.851 33.1263C130.851 33.1566 132.1 33.819 132.156 33.819C132.181 33.819 132.252 33.6976 132.323 33.556C132.388 33.4044 132.581 33.1515 132.752 32.9796C133.273 32.4589 133.961 32.201 134.846 32.201C135.837 32.201 136.479 32.5296 136.777 33.1869C136.868 33.3892 136.893 33.556 136.909 34.0263C136.929 34.547 136.919 34.6178 136.843 34.6482C136.792 34.6633 136.352 34.7392 135.862 34.81C133.829 35.0982 132.788 35.4268 131.883 36.074C130.149 37.3026 129.896 39.5273 131.327 40.9683C132.05 41.6913 132.995 41.9846 134.229 41.8582C135.281 41.752 136.135 41.3526 136.732 40.6953C136.974 40.4273 137.02 40.3919 137.02 40.493C137.02 40.9026 137.359 41.3678 137.783 41.5548C138.087 41.6812 138.714 41.7419 138.992 41.6711L139.169 41.6256V41.0745V40.5234L138.992 40.4829C138.896 40.4577 138.764 40.3818 138.709 40.3161C138.602 40.1998 138.602 40.1695 138.572 36.8931C138.542 33.2729 138.542 33.2678 138.228 32.6308C137.849 31.8622 137.091 31.301 136.059 31.033C135.559 30.9016 134.36 30.8611 133.86 30.9572ZM136.969 37.3582C136.969 38.9256 136.974 38.8903 136.625 39.3251C136.246 39.7902 135.372 40.306 134.664 40.4728C134.472 40.5183 134.128 40.5537 133.9 40.5588C133.531 40.5588 133.445 40.5385 133.157 40.397C132.56 40.1037 132.211 39.5779 132.136 38.865C132.075 38.2431 132.277 37.6616 132.707 37.247C133.283 36.6908 134.133 36.3976 135.928 36.1448C136.337 36.0841 136.727 36.0184 136.787 35.9931C136.843 35.9678 136.909 35.9476 136.934 35.9476C136.954 35.9425 136.969 36.5796 136.969 37.3582Z" fill="#9B9996"/>
<path d="M145.394 30.975C144.736 31.1519 144.094 31.5311 143.467 32.1176L143.098 32.4564V31.7688V31.0811H142.264H141.43V36.3648V41.6484H142.264H143.098V37.7097V33.7659L143.493 33.4322C144.534 32.5322 145.363 32.1631 146.233 32.2036C146.905 32.239 147.29 32.4463 147.522 32.9013C147.74 33.3311 147.75 33.5334 147.75 37.6895V41.6484H148.584H149.423L149.408 37.4872C149.393 33.7204 149.383 33.3008 149.302 33.0277C149.014 32.0266 148.422 31.3997 147.446 31.066C146.87 30.8637 145.955 30.8233 145.394 30.975Z" fill="#9B9996"/>
<path d="M175.296 30.9803C174.032 31.2433 173.087 31.8955 172.419 32.9573L172.293 33.1646L172.935 33.5033C173.294 33.6854 173.598 33.837 173.613 33.837C173.628 33.837 173.714 33.7005 173.805 33.5337C174.098 32.9826 174.72 32.5073 175.392 32.3152C175.554 32.2697 175.883 32.2444 176.328 32.2494C176.914 32.2494 177.051 32.2697 177.304 32.3657C177.749 32.5427 177.996 32.755 178.194 33.1393C178.345 33.4427 178.365 33.5236 178.391 34.0342L178.416 34.5955L178.244 34.6663C178.148 34.7016 177.845 34.7623 177.567 34.7927C175.19 35.0707 173.754 35.6016 172.814 36.5421C172.263 37.0932 171.969 37.6999 171.878 38.4685C171.772 39.4443 172.111 40.3443 172.864 41.0572C173.501 41.6639 174.164 41.8965 175.241 41.8864C175.979 41.8813 176.641 41.7448 177.142 41.4971C177.572 41.2797 178.032 40.9308 178.249 40.6578L178.446 40.41L178.502 40.6881C178.654 41.4162 179.392 41.8207 180.342 41.7044L180.626 41.669V41.0875V40.5111H180.499C180.428 40.5111 180.302 40.4454 180.211 40.3645L180.044 40.2179L180.014 36.8353C179.993 33.9078 179.978 33.4224 179.908 33.1848C179.751 32.6741 179.559 32.3556 179.164 31.9612C178.724 31.5213 178.194 31.2281 177.516 31.0511C176.985 30.9146 175.802 30.8742 175.296 30.9803ZM178.451 37.3409C178.451 38.7162 178.451 38.7213 178.325 38.9791C178.062 39.51 177.248 40.1218 176.469 40.3797C175.544 40.6932 174.902 40.6527 174.326 40.2533C173.633 39.778 173.38 38.5949 173.79 37.7657C174.209 36.9213 175.226 36.4612 177.339 36.1679C177.744 36.1123 178.128 36.0466 178.199 36.0162C178.461 35.9151 178.451 35.8646 178.451 37.3409Z" fill="#9B9996"/>
<path d="M186.852 30.98C186.129 31.1671 185.517 31.5311 184.92 32.1075L184.551 32.4615V31.7738V31.0811H183.717H182.883V36.3648V41.6484H183.717H184.551V37.7097V33.771L184.855 33.4929C185.755 32.6586 186.71 32.1935 187.529 32.1935C188.278 32.1935 188.758 32.4615 189.006 33.0176L189.127 33.2805L189.142 37.462L189.157 41.6484H189.987H190.821V37.5631C190.821 33.0379 190.821 33.0834 190.492 32.4109C190.022 31.4553 188.95 30.8738 187.676 30.8839C187.388 30.8839 187.069 30.9193 186.852 30.98Z" fill="#9B9996"/>
<path d="M117.865 31.0103C117.683 31.0508 117.344 31.1721 117.111 31.2884C116.596 31.5412 116.045 32.062 115.65 32.6738L115.387 33.0732V32.0772V31.0811H114.553H113.719V36.3648V41.6484H114.553H115.387V38.6249V35.6064L115.514 35.1311C115.756 34.2361 116.186 33.5232 116.757 33.0935C117.238 32.7294 117.779 32.5423 118.563 32.4665L118.927 32.4311V31.6828V30.9294L118.563 30.9345C118.36 30.9395 118.047 30.9699 117.865 31.0103Z" fill="#9B9996"/>
<path d="M208.386 31.0679C208.386 31.078 209.216 33.4443 210.232 36.3263C211.248 39.2083 212.077 41.6099 212.077 41.6706C212.077 41.8729 211.769 42.7021 211.506 43.1976C211.041 44.0925 210.54 44.5122 209.767 44.6537C209.489 44.7093 208.786 44.6891 208.478 44.6183L208.336 44.588V45.22V45.852L208.478 45.8824C209.873 46.1655 210.93 45.938 211.708 45.1947C212.219 44.6992 212.765 43.8397 213.104 42.9802C213.245 42.6161 216.931 31.1842 216.931 31.0983C216.931 31.0679 216.648 31.0477 216.132 31.0477H215.339L214.13 35.128C213.463 37.378 212.902 39.2336 212.876 39.2588C212.851 39.2892 212.836 39.2841 212.836 39.2437C212.836 39.1931 210.181 31.5331 210.03 31.1337C209.999 31.0578 209.908 31.0477 209.19 31.0477C208.751 31.0477 208.386 31.0578 208.386 31.0679Z" fill="#9B9996"/>
</svg>
