<svg width="304" height="73" viewBox="0 0 304 73" fill="none" xmlns="http://www.w3.org/2000/svg">
<path d="M92.5391 27.4687C92.5391 32.6496 92.5807 33.3882 92.9656 35.5001C93.8291 40.2025 95.9306 44.3431 99.1869 47.7554C100.55 49.1807 102.786 50.8764 104.378 51.6671L105.034 52L105.835 51.459C109.882 48.7125 113.013 45.3002 114.927 41.5237C116.259 38.9021 117.008 36.374 117.299 33.4819C117.351 32.8889 117.403 30.1424 117.403 27.375V22.3398H104.971H92.5391V27.4687ZM97.4807 25.9498C98.0737 25.981 98.5523 26.0538 98.5939 26.1266C98.6875 26.2619 98.6979 31.5364 98.6147 32.2959L98.5418 32.8369L97.3142 32.7952C96.534 32.7744 96.0138 32.7224 95.9202 32.6392C95.7849 32.5248 95.7641 32.0358 95.7641 29.4661C95.7641 27.7912 95.7953 26.2723 95.8266 26.085C95.889 25.7937 95.9306 25.7625 96.1699 25.8249C96.3155 25.8561 96.9085 25.9186 97.4807 25.9498ZM101.985 29.1644C101.944 31.5676 101.892 32.5872 101.809 32.6704C101.725 32.7536 101.257 32.8056 100.519 32.8161C99.8839 32.8265 99.2597 32.8577 99.1348 32.8889L98.906 32.9513L98.958 29.6014C98.9892 27.6351 99.062 26.1891 99.1244 26.1058C99.1869 26.0226 99.5614 25.981 100.227 25.9706C100.779 25.9602 101.34 25.9186 101.486 25.877C102.069 25.6897 102.037 25.492 101.985 29.1644ZM109.497 25.9602L110.579 26.033L110.662 26.3971C110.703 26.5948 110.714 28.1241 110.672 29.7991L110.61 32.8265L109.32 32.7952C108.467 32.7744 107.978 32.7224 107.874 32.6288C107.728 32.5144 107.718 32.119 107.78 29.2685C107.822 27.4895 107.863 25.9706 107.895 25.8874C107.926 25.7937 108.019 25.7729 108.175 25.8249C108.3 25.8666 108.893 25.929 109.497 25.9602ZM113.97 29.1228C113.97 31.0371 113.929 32.5456 113.866 32.6392C113.793 32.7536 113.44 32.8056 112.337 32.8577C111.546 32.8889 110.901 32.9097 110.901 32.9097C110.901 32.8993 110.922 31.3908 110.953 29.539C110.995 26.7092 111.026 26.1683 111.161 26.085C111.244 26.033 111.785 25.981 112.358 25.9706C112.93 25.9706 113.492 25.929 113.606 25.877C113.72 25.8249 113.845 25.7833 113.897 25.7833C113.939 25.7729 113.97 27.2814 113.97 29.1228ZM94.9839 26.2619C94.8486 26.8133 94.7966 33.2114 94.9215 33.4507C95.0359 33.6587 95.1295 33.6795 96.5756 33.7003C97.8552 33.7316 98.1049 33.7524 98.1049 33.8876C98.1049 34.0229 97.8448 34.0437 96.5132 34.0749C95.5353 34.0853 94.8486 34.0541 94.7238 33.9916C94.5573 33.898 94.5157 33.7732 94.5157 33.3362C94.5157 32.7224 94.3909 32.5352 93.9955 32.5352C93.8499 32.5352 93.6314 32.4727 93.5274 32.3895C93.3609 32.2647 93.3505 32.2231 93.465 32.0774C93.5378 31.9942 93.7667 31.8901 93.9851 31.8485C94.1932 31.8069 94.3909 31.7237 94.4325 31.6613C94.4741 31.5988 94.5157 30.8186 94.5157 29.9239C94.5157 28.1865 94.4845 28.0617 93.9851 28.0617C93.6002 28.0617 93.3713 27.968 93.3713 27.7912C93.3713 27.6143 93.6938 27.4375 94.0164 27.4375C94.3805 27.4375 94.5157 27.2398 94.5157 26.7092C94.5157 26.2203 94.651 25.981 94.911 25.981C95.0255 25.981 95.0463 26.0538 94.9839 26.2619ZM103.223 26.0642C103.286 26.1058 103.359 26.4179 103.379 26.7612L103.411 27.3855L103.775 27.4375C104.253 27.5207 104.399 27.6143 104.399 27.8536C104.399 28.0097 104.305 28.0513 103.91 28.0825L103.411 28.1137L103.338 29.8303C103.275 30.9746 103.286 31.5676 103.359 31.6509C103.421 31.7029 103.671 31.8069 103.91 31.8589C104.233 31.9422 104.347 32.0254 104.347 32.171C104.347 32.3375 104.264 32.3895 103.931 32.4103C103.421 32.4519 103.255 32.6496 103.255 33.2426C103.255 34.1061 103.275 34.0957 101.278 34.0957C99.7799 34.0957 99.5094 34.0749 99.5094 33.9396C99.5094 33.794 100.414 33.7212 102.287 33.742C102.589 33.742 102.745 33.6899 102.786 33.5859C102.838 33.4611 102.974 26.8757 102.943 26.0538C102.943 25.9602 103.067 25.9602 103.223 26.0642ZM107.031 26.2099C106.989 26.3451 106.948 28.0617 106.948 30.0383V33.6275L108.529 33.6795C109.393 33.7107 110.131 33.7628 110.173 33.8044C110.215 33.846 110.215 33.9188 110.173 33.9812C110.09 34.1269 106.906 34.1373 106.688 33.9916C106.584 33.9292 106.511 33.6587 106.48 33.2426L106.428 32.5872L106.064 32.5352C105.273 32.3999 105.221 32.0358 105.96 31.8589L106.428 31.7445L106.459 29.9863C106.49 28.0721 106.48 28.0617 105.897 28.0617C105.533 28.0617 105.304 27.864 105.429 27.6663C105.471 27.5935 105.71 27.4999 105.97 27.4583L106.428 27.375L106.511 26.8133C106.625 26.033 106.646 25.981 106.896 25.981C107.083 25.981 107.104 26.0226 107.031 26.2099ZM115.156 26.0434C115.25 26.0746 115.323 26.2307 115.323 26.3867C115.323 26.5324 115.354 26.8341 115.385 27.0421C115.437 27.3646 115.499 27.4375 115.697 27.4375C116.113 27.4375 116.488 27.6351 116.446 27.8328C116.425 27.968 116.28 28.0201 115.895 28.0617L115.375 28.1137V29.9343V31.7445L115.843 31.8589C116.207 31.9422 116.321 32.0254 116.342 32.2022C116.373 32.3999 116.332 32.4311 115.978 32.4311C115.76 32.4311 115.531 32.4727 115.458 32.5144C115.385 32.556 115.302 32.8785 115.26 33.2114C115.219 33.5547 115.146 33.898 115.083 33.9604C114.958 34.1373 111.629 34.1477 111.525 33.9812C111.484 33.9188 111.473 33.8564 111.484 33.8356C111.505 33.8148 112.254 33.7836 113.138 33.7524L114.75 33.7003L114.823 32.8369C114.854 32.3583 114.896 30.6521 114.896 29.05C114.896 27.4479 114.896 26.1058 114.906 26.0538C114.906 25.9602 114.948 25.9602 115.156 26.0434ZM102.63 26.2931C102.766 26.5428 102.734 32.8889 102.599 33.0241C102.547 33.0657 102.443 33.0137 102.36 32.9097C102.141 32.5976 102.141 26.085 102.37 26.085C102.454 26.085 102.568 26.1787 102.63 26.2931ZM107.354 32.9201C107.27 33.0657 107.166 33.1594 107.145 33.1282C107.114 33.0969 107.093 31.6093 107.104 29.8199C107.104 26.9173 107.125 26.5324 107.291 26.2931C107.458 26.0434 107.468 26.1683 107.499 29.3517C107.52 32.2439 107.499 32.7016 107.354 32.9201ZM114.657 26.4075C114.802 26.7508 114.688 32.9721 114.532 33.0241C114.241 33.1178 114.178 32.4935 114.178 29.3725C114.178 27.6455 114.209 26.1891 114.251 26.1474C114.365 26.033 114.532 26.137 114.657 26.4075ZM95.5353 29.5182C95.504 32.4935 95.4832 32.8577 95.3272 33.0137C95.1607 33.1906 95.1399 33.1906 95.0775 33.0137C94.9839 32.7744 95.0879 26.6052 95.1919 26.3659C95.2336 26.2723 95.3376 26.1891 95.4208 26.1891C95.5457 26.1891 95.5665 26.6676 95.5353 29.5182ZM98.2401 33.1178C98.3962 33.149 98.469 33.2322 98.4482 33.3362C98.417 33.4923 98.2506 33.5131 96.9605 33.4819C96.1595 33.4715 95.4728 33.4299 95.4312 33.3986C95.3792 33.3778 95.3896 33.2738 95.4416 33.1698C95.5353 33.0137 95.6809 32.9929 96.7733 33.0241C97.4495 33.0449 98.1049 33.0865 98.2401 33.1178ZM110.412 33.1073C110.475 33.1386 110.537 33.2218 110.537 33.305C110.537 33.4299 110.287 33.4403 109.008 33.3986C108.155 33.3674 107.447 33.3258 107.426 33.305C107.406 33.2842 107.437 33.201 107.51 33.1282C107.593 33.0137 107.915 32.9929 108.945 33.0241C109.684 33.0553 110.339 33.0865 110.412 33.1073ZM114.365 33.0761C114.709 33.4195 114.522 33.4715 112.888 33.4715C112.004 33.4715 111.255 33.4299 111.224 33.3778C111.078 33.1386 111.494 33.0345 112.285 33.0865C112.722 33.1282 113.273 33.1073 113.502 33.0657C114.105 32.9305 114.23 32.9409 114.365 33.0761ZM102.297 33.1802C102.61 33.4923 102.422 33.5339 100.789 33.5235C99.3949 33.5235 99.1452 33.5027 99.1452 33.3674C99.1452 33.2426 99.3741 33.201 100.394 33.1594C101.08 33.1178 101.757 33.0865 101.913 33.0761C102.058 33.0657 102.225 33.1073 102.297 33.1802ZM99.1348 33.7212C99.3325 34.0229 99.2597 34.2725 98.958 34.3662C98.8123 34.4078 98.6979 34.3766 98.6043 34.2413C98.4274 34.002 98.4378 33.8356 98.6355 33.6379C98.854 33.409 98.9372 33.4299 99.1348 33.7212ZM111.14 33.5963C111.317 33.7732 111.296 34.1997 111.099 34.2725C110.724 34.4078 110.391 33.9292 110.641 33.6275C110.797 33.4403 110.974 33.4299 111.14 33.5963ZM108.852 41.0244C108.872 44.031 108.862 44.3847 108.706 44.5095C108.581 44.6136 108.061 44.6656 106.854 44.7072C105.928 44.7384 105.106 44.7904 105.023 44.8112C104.888 44.8528 104.867 44.6448 104.867 43.3651C104.867 42.3144 104.909 41.8462 104.992 41.8254C105.127 41.7734 105.262 42.1271 105.273 42.5225C105.283 42.7513 105.335 42.7825 105.679 42.8138C106.095 42.845 106.147 42.7825 105.907 42.5225C105.627 42.2104 104.992 39.8384 104.95 38.9125C104.888 37.8305 104.888 37.8305 106.615 37.8825C107.51 37.9033 107.999 37.8721 108.207 37.7785C108.841 37.4976 108.82 37.3728 108.852 41.0244ZM102.849 37.8409C104.576 37.8409 104.607 37.8617 104.607 38.8084C104.607 39.6407 103.879 42.3976 103.619 42.5953C103.452 42.7097 103.452 42.7305 103.598 42.793C103.931 42.9178 104.139 42.793 104.108 42.5017C104.066 42.1583 104.243 41.7942 104.461 41.7942C104.586 41.7942 104.607 42.0231 104.586 43.2715L104.555 44.7488L102.838 44.7176C101.652 44.6968 101.059 44.6552 100.914 44.5615C100.685 44.4159 100.695 44.8008 100.747 38.8396L100.758 37.7057L101.08 37.7785C101.257 37.8097 102.058 37.8409 102.849 37.8409ZM110.277 38.0594C110.319 38.1738 110.319 38.4235 110.287 38.6108C110.204 39.0581 110.402 39.3078 110.912 39.391C111.224 39.443 111.317 39.5055 111.317 39.6615C111.317 39.828 111.234 39.88 110.849 39.9216L110.381 39.9736L110.308 41.7422C110.267 42.9178 110.277 43.5524 110.35 43.6356C110.412 43.7085 110.61 43.7709 110.787 43.7709C111.203 43.7709 111.401 43.9061 111.348 44.1454C111.328 44.291 111.203 44.3535 110.849 44.3951C110.339 44.4575 110.256 44.5823 110.235 45.4042C110.225 45.7267 110.173 45.8724 110.017 45.9556C109.892 46.0284 109.008 46.0492 107.603 46.0388C105.72 46.0076 105.387 45.9868 105.387 45.8516C105.387 45.7163 105.71 45.6851 107.489 45.6435C108.644 45.6123 109.622 45.5499 109.663 45.5083C109.83 45.3522 109.902 43.9893 109.902 41.2428C109.913 39.4014 109.871 38.3819 109.798 38.2362C109.705 38.0698 109.715 37.997 109.819 37.9345C110.058 37.7889 110.204 37.8305 110.277 38.0594ZM99.9671 38.1218C99.8735 38.3507 99.6862 45.0713 99.7695 45.4042C99.8215 45.6435 99.8319 45.6435 101.902 45.6435C103.848 45.6435 104.274 45.7059 104.035 45.9348C104.004 45.9764 103.015 46.018 101.84 46.0388C100.258 46.07 99.6758 46.0492 99.5614 45.9556C99.4574 45.8724 99.4053 45.6331 99.4053 45.269C99.4053 44.6032 99.2285 44.3951 98.6771 44.3951C98.4378 44.3951 98.261 44.3431 98.2297 44.2494C98.1465 44.031 98.365 43.8749 98.7811 43.8749C99.4157 43.8749 99.4157 43.8853 99.3845 41.8879L99.3533 40.0777L98.8644 40.0464C98.2714 40.0048 98.0113 39.7656 98.313 39.5471C98.417 39.4639 98.6563 39.4014 98.8331 39.4014C99.2285 39.4014 99.4053 39.235 99.4053 38.8709C99.4053 38.7252 99.4365 38.4443 99.4678 38.2675C99.5198 38.0074 99.5926 37.9449 99.7903 37.9449C99.9983 37.9449 100.04 37.9762 99.9671 38.1218ZM109.507 38.1738C109.601 38.3507 109.632 39.287 109.611 41.6902C109.601 43.49 109.559 44.9881 109.538 45.0193C109.507 45.0401 109.393 44.9569 109.289 44.8112C109.112 44.5823 109.081 44.3639 109.081 42.8866C109.081 40.6186 109.195 37.9449 109.299 37.9449C109.351 37.9449 109.445 38.049 109.507 38.1738ZM100.446 41.274C100.446 44.5095 100.394 45.0193 100.061 45.0193C99.9463 45.0193 99.9359 44.4471 99.9879 41.763C100.061 38.6316 100.113 38.049 100.342 38.049C100.414 38.049 100.446 39.1413 100.446 41.274ZM104.909 40.9724C105.065 41.4925 104.961 41.6382 104.565 41.4821C104.337 41.3989 104.295 41.3365 104.347 41.1388C104.389 41.014 104.441 40.8267 104.461 40.7227C104.555 40.4106 104.774 40.5354 104.909 40.9724ZM102.599 45.0089C103.525 45.0401 104.305 45.1025 104.347 45.1441C104.389 45.1857 104.389 45.269 104.347 45.3314C104.285 45.425 103.754 45.4458 102.297 45.4042C101.205 45.373 100.3 45.321 100.269 45.2898C100.238 45.269 100.279 45.1441 100.342 45.0193C100.435 44.8424 100.519 44.8112 100.685 44.8736C100.81 44.9153 101.673 44.9777 102.599 45.0089ZM109.226 45.0089C109.33 45.1233 109.382 45.269 109.341 45.321C109.247 45.477 105.273 45.477 105.169 45.321C105.034 45.0921 105.408 45.0193 106.792 45.0089C107.562 44.9985 108.342 44.9569 108.508 44.9153C108.997 44.7904 109.039 44.8008 109.226 45.0089ZM104.898 45.4562C104.971 45.5291 105.023 45.7371 105.023 45.9348C105.023 46.2469 105.002 46.2781 104.742 46.2469C104.513 46.2261 104.441 46.1533 104.42 45.9244C104.389 45.6539 104.545 45.3314 104.701 45.3314C104.742 45.3314 104.826 45.3834 104.898 45.4562Z" fill="#9B9996"/>
<path d="M96.026 28.0647C95.9948 28.1272 96.0364 28.2 96.1196 28.2312C96.2132 28.2624 96.4629 28.845 96.723 29.6357C96.9623 30.3743 97.2224 30.9985 97.2952 31.0193C97.4617 31.0921 97.6385 30.676 97.9402 29.5212C98.0651 29.0323 98.2107 28.5225 98.2731 28.3872C98.346 28.2 98.346 28.1168 98.2419 28.0543C97.9402 27.8567 97.8258 27.9503 97.8882 28.3456C97.961 28.7722 97.6489 30.0518 97.4617 30.1142C97.3056 30.1662 96.8062 28.4601 96.9311 28.304C96.9831 28.2312 97.0039 28.1272 96.9623 28.0647C96.8791 27.9295 96.1092 27.9295 96.026 28.0647Z" fill="#9B9996"/>
<path d="M99.3888 28.0366C99.3472 28.0782 99.368 28.1718 99.4305 28.2446C99.5033 28.3383 99.5345 28.8584 99.5137 29.7323L99.4721 31.0744L99.9922 31.1368C100.284 31.168 100.616 31.1992 100.741 31.1992C101.012 31.1992 101.241 30.8455 101.137 30.5958C101.085 30.4398 101.053 30.4502 100.887 30.6582C100.752 30.8455 100.627 30.8975 100.346 30.8663L99.9922 30.8351L99.961 30.1797L99.9298 29.5139L100.325 29.5555C100.679 29.5867 100.72 29.5555 100.752 29.337C100.783 29.1289 100.762 29.0977 100.596 29.1705C100.169 29.3474 99.9922 29.285 99.961 28.9417C99.9402 28.7544 99.9818 28.5151 100.044 28.3903C100.148 28.1926 100.179 28.1926 100.523 28.3383C100.877 28.4839 100.887 28.4839 100.856 28.255C100.825 28.047 100.762 28.0262 100.148 27.995C99.7738 27.9742 99.4305 27.995 99.3888 28.0366Z" fill="#9B9996"/>
<path d="M108.352 28.0506C108.352 28.0922 108.404 28.1859 108.466 28.2483C108.612 28.3939 108.612 30.5891 108.456 30.8699C108.362 31.0572 108.383 31.0884 108.612 31.1508C108.986 31.2445 109.225 31.13 109.121 30.9012C109.08 30.8075 109.028 30.5474 108.997 30.329C108.934 29.7672 109.173 29.8296 109.548 30.4746C109.86 31.0052 110.162 31.2757 110.266 31.0988C110.297 31.0572 110.183 30.7971 110.016 30.5266C109.642 29.9336 109.631 29.7776 109.964 29.4655C110.162 29.2886 110.224 29.1222 110.224 28.8101C110.224 28.2067 109.881 27.9674 109.017 27.9674C108.653 27.9674 108.352 28.009 108.352 28.0506ZM109.694 28.4459C109.818 28.602 109.912 28.7789 109.912 28.8517C109.912 29.0701 109.486 29.5279 109.277 29.5279C109.101 29.5279 109.08 29.4551 109.08 28.9245C109.08 28.5916 109.111 28.2795 109.153 28.2483C109.288 28.1026 109.486 28.1859 109.694 28.4459Z" fill="#9B9996"/>
<path d="M111.879 29.337C111.899 30.2421 111.868 30.7415 111.795 30.8143C111.556 31.0536 111.671 31.1992 112.087 31.1992C112.503 31.1992 112.721 31.064 112.513 30.9391C112.368 30.8455 112.378 28.4631 112.524 28.3175C112.7 28.1406 112.534 27.9742 112.17 27.9742H111.837L111.879 29.337Z" fill="#9B9996"/>
<path d="M107.629 39.7249C107.546 39.7769 107.369 39.7977 107.244 39.7665C106.932 39.6833 106.484 40.141 106.484 40.5468C106.484 40.8485 106.609 40.9837 107.525 41.6808C107.858 41.9408 107.92 42.2009 107.712 42.409C107.504 42.6171 107.119 42.5547 106.859 42.2738C106.536 41.9304 106.484 41.9408 106.484 42.3674C106.484 42.6587 106.526 42.7211 106.724 42.7315C106.848 42.7315 107.119 42.7627 107.317 42.7939C107.618 42.8564 107.722 42.8147 107.93 42.5963C108.336 42.1593 108.274 41.7432 107.722 41.275C106.734 40.4115 106.776 40.474 106.901 40.2451C107.036 39.9954 107.337 39.9746 107.525 40.1931C107.743 40.4532 107.941 40.3803 107.941 40.0474C107.941 39.6937 107.837 39.5897 107.629 39.7249Z" fill="#9B9996"/>
<path d="M101.572 39.7955C101.52 39.9516 101.499 40.1389 101.53 40.2221C101.582 40.3573 101.624 40.3365 101.749 40.1597C101.832 40.0348 101.998 39.9308 102.113 39.9308C102.311 39.9308 102.321 39.9828 102.279 41.148C102.259 41.8242 102.207 42.4796 102.165 42.6045C102.082 42.8333 102.102 42.8438 102.519 42.8438C102.924 42.8438 102.956 42.8229 102.883 42.6045C102.81 42.3444 102.82 40.1389 102.904 40.0036C102.935 39.962 103.049 39.9932 103.153 40.0972C103.393 40.3157 103.455 40.2637 103.486 39.8684C103.497 39.6395 103.465 39.5771 103.351 39.6083C102.956 39.7227 102.279 39.7331 101.998 39.6291C101.707 39.5355 101.666 39.5459 101.572 39.7955Z" fill="#9B9996"/>
<path d="M144.145 26.0373C144.083 26.1934 144.041 26.3494 144.041 26.4015C144.041 26.5159 140.452 35.1507 140.203 35.6397C139.963 36.0975 139.62 36.4408 139.235 36.5864C138.6 36.8257 138.954 36.9089 140.556 36.9089C142.21 36.9089 142.481 36.8361 141.815 36.5552C141.43 36.3992 141.284 36.1079 141.389 35.7333C141.43 35.6085 141.649 35.0259 141.877 34.4329L142.294 33.3718H144.364H146.434L146.725 34.0168C147.423 35.5773 147.516 35.8582 147.412 36.1599C147.36 36.3159 147.183 36.5032 147.027 36.576C146.871 36.6488 146.746 36.7633 146.746 36.8361C146.746 36.9297 147.246 36.9609 148.671 36.9609C150.731 36.9609 150.939 36.8985 150.211 36.524C150.003 36.4096 149.742 36.2119 149.638 36.0662C149.399 35.7541 145.883 27.7747 145.487 26.6615L145.196 25.8293L144.718 25.7981C144.291 25.7668 144.239 25.7876 144.145 26.0373ZM145.217 30.5108C145.664 31.5407 146.018 32.4146 146.018 32.4563C146.018 32.5083 145.269 32.5395 144.353 32.5395C143.438 32.5395 142.689 32.4979 142.689 32.4563C142.689 32.4146 143.001 31.6032 143.376 30.6669C143.75 29.7201 144.104 28.8359 144.156 28.7006C144.218 28.555 144.291 28.4925 144.343 28.5446C144.385 28.5966 144.78 29.4809 145.217 30.5108Z" fill="#9B9996"/>
<path d="M154.256 25.8346C152.664 25.8658 152.352 25.8971 152.352 26.0219C152.352 26.1051 152.446 26.1779 152.55 26.1779C152.664 26.1779 152.893 26.2924 153.049 26.4276L153.34 26.6773V31.3589C153.34 36.5502 153.371 36.2901 152.654 36.5814C151.967 36.8727 152.31 36.9455 154.225 36.9455C155.65 36.9455 156.097 36.9143 156.097 36.8207C156.097 36.7478 155.931 36.623 155.733 36.5294C155.14 36.2901 155.057 35.9572 155.057 33.7829C155.057 32.7529 155.098 31.8894 155.15 31.8582C155.327 31.7438 156.472 32.1183 156.825 32.4096C157.023 32.5657 157.71 33.4187 158.355 34.303C160.165 36.7791 160.591 37.1016 162.162 37.1016C163.317 37.1016 163.629 36.9247 162.891 36.675C162.308 36.4878 161.611 35.7699 160.155 33.8245C159.426 32.857 158.729 31.9935 158.604 31.9206C158.282 31.7334 158.334 31.6606 158.885 31.4629C160.467 30.8907 161.288 29.6423 161.008 28.217C160.695 26.6877 159.457 25.8971 157.2 25.8242C156.617 25.8138 155.296 25.8138 154.256 25.8346ZM158.095 26.875C158.823 27.2911 159.218 27.9986 159.218 28.8724C159.208 30.4538 158.167 31.2132 156.087 31.1508L155.109 31.1196L155.078 28.862L155.057 26.6045L155.338 26.5629C155.504 26.5317 156.056 26.5213 156.586 26.5317C157.418 26.5629 157.606 26.6045 158.095 26.875Z" fill="#9B9996"/>
<path d="M179.423 26.235C179.309 26.6927 175.896 34.9843 175.553 35.6605C175.324 36.1079 174.971 36.4408 174.596 36.5864C174.43 36.6488 174.305 36.7529 174.305 36.8257C174.305 36.9297 174.658 36.9505 175.917 36.9297C176.802 36.9089 177.53 36.8673 177.53 36.8153C177.53 36.7737 177.363 36.6592 177.166 36.5656C176.541 36.2639 176.583 35.879 177.488 33.7151L177.634 33.3718H179.714H181.785L182.003 33.8607C182.919 35.8894 182.971 36.2535 182.419 36.5448C181.743 36.8881 182.014 36.9609 184.032 36.9609C185.52 36.9609 185.957 36.9297 185.957 36.8257C185.957 36.7529 185.832 36.6488 185.676 36.5864C185.26 36.4304 185.031 36.2015 184.76 35.6605C184.292 34.7346 180.838 26.7656 180.692 26.2766L180.536 25.7772H180.047H179.548L179.423 26.235ZM180.536 30.4484C180.994 31.5303 181.379 32.4458 181.379 32.4771C181.379 32.5083 180.63 32.5395 179.714 32.5395C178.685 32.5395 178.05 32.4979 178.05 32.4354C178.05 32.3418 179.465 28.7318 179.579 28.5654C179.6 28.5133 179.642 28.4821 179.652 28.4821C179.673 28.4821 180.068 29.3664 180.536 30.4484Z" fill="#9B9996"/>
<path d="M189.375 25.8346C187.898 25.8658 187.523 25.8971 187.523 26.0115C187.523 26.0947 187.638 26.1884 187.784 26.2196C187.929 26.2612 188.137 26.3756 188.252 26.4901C188.449 26.6877 188.46 26.8542 188.46 31.3381C188.46 34.4591 188.418 36.0404 188.345 36.1861C188.283 36.3005 188.075 36.4565 187.877 36.5398C187.679 36.623 187.523 36.7478 187.523 36.8207C187.523 36.9143 187.971 36.9455 189.396 36.9455C191.394 36.9455 191.633 36.8831 190.884 36.5086C190.27 36.2173 190.228 36.0404 190.228 33.7933V31.7854L190.624 31.8582C191.113 31.9415 191.872 32.264 192.132 32.5032C192.247 32.5969 192.86 33.4083 193.505 34.2926C195.378 36.8623 195.69 37.0912 197.219 37.1016C198.489 37.1016 198.79 36.9559 198.062 36.6958C197.49 36.4878 196.678 35.6555 195.513 34.0846C194.941 33.3147 194.234 32.4304 193.942 32.1287C193.516 31.7022 193.453 31.5877 193.609 31.5877C193.953 31.5877 194.858 31.1092 195.326 30.6826C195.919 30.1625 196.189 29.5383 196.179 28.7372C196.179 27.8841 195.929 27.3119 195.305 26.7501C194.348 25.8867 193.433 25.7514 189.375 25.8346ZM192.736 26.6565C194.691 27.2391 194.993 29.9336 193.193 30.8491C192.725 31.0988 192.559 31.1196 191.477 31.1196H190.28L190.249 28.862L190.228 26.6045L190.457 26.5629C191.029 26.4588 192.205 26.5005 192.736 26.6565Z" fill="#9B9996"/>
<path d="M201.696 25.8487C200.291 25.8799 200 25.9111 200 26.036C200 26.1296 200.094 26.192 200.218 26.192C200.333 26.192 200.572 26.3273 200.739 26.4937L201.04 26.7954V31.3313C201.04 34.546 201.009 35.9296 200.916 36.1273C200.853 36.273 200.624 36.4706 200.395 36.5642C199.563 36.9284 199.865 36.97 203.308 36.9596C206.606 36.9492 206.606 36.9492 207.438 36.6683C209.654 35.9296 210.955 34.5356 211.402 32.4341C211.589 31.5602 211.537 30.5095 211.277 29.6044C210.768 27.8774 209.332 26.577 207.334 26.0256C206.658 25.8487 204.692 25.7759 201.696 25.8487ZM205.836 26.6082C206.721 26.7746 207.823 27.3676 208.364 27.971C209.228 28.9281 209.561 29.9061 209.571 31.4666C209.571 33.464 208.718 34.9621 207.137 35.7008C206.221 36.1273 205.327 36.2521 203.568 36.2001L202.809 36.1793V31.4041V26.6186L203.048 26.577C203.516 26.4833 205.295 26.5041 205.836 26.6082Z" fill="#9B9996"/>
<path d="M125.406 25.9787C125.406 26.0412 125.562 26.166 125.76 26.2596C125.958 26.3429 126.166 26.5405 126.228 26.6758C126.301 26.8422 126.343 28.3923 126.343 31.4717C126.343 36.455 126.363 36.3302 125.718 36.5902C125.552 36.6631 125.406 36.7567 125.406 36.8087C125.406 36.8607 126.228 36.9023 127.227 36.9023C128.226 36.9023 129.047 36.8607 129.047 36.8087C129.047 36.7567 128.902 36.6631 128.735 36.5902C128.132 36.3406 128.111 36.2365 128.111 33.8125V31.5966H131.336H134.561V33.8125C134.561 36.2365 134.54 36.3406 133.937 36.5902C133.771 36.6631 133.625 36.7567 133.625 36.8087C133.625 36.8607 134.447 36.9023 135.446 36.9023C136.444 36.9023 137.266 36.8607 137.266 36.8087C137.266 36.7567 137.121 36.6631 136.954 36.5902C136.309 36.3302 136.33 36.455 136.33 31.4717C136.33 28.3923 136.371 26.8422 136.444 26.6758C136.507 26.5405 136.715 26.3429 136.912 26.2596C137.578 25.9371 137.339 25.8747 135.446 25.8747C133.583 25.8747 133.302 25.9475 133.979 26.2284C134.176 26.3116 134.384 26.4677 134.447 26.5821C134.52 26.7174 134.561 27.5392 134.561 28.7252V30.6603H131.336H128.111V28.6836C128.111 26.8318 128.122 26.6966 128.319 26.4989C128.444 26.3741 128.652 26.2388 128.787 26.1868C129.401 25.9579 129.006 25.8747 127.227 25.8747C126.062 25.8747 125.406 25.9163 125.406 25.9787Z" fill="#9B9996"/>
<path d="M162.852 26.0244C162.852 26.0972 163.018 26.2221 163.216 26.2949C163.424 26.3677 163.694 26.5654 163.819 26.7318C163.944 26.9087 165.057 29.2807 166.285 32.0064L168.521 36.9688L168.99 37L169.458 37.0312L171.58 32.0272C173.557 27.3873 173.734 27.0023 174.15 26.6174C174.399 26.3885 174.67 26.2013 174.764 26.2013C174.847 26.2013 174.92 26.1285 174.92 26.0452C174.92 25.91 174.67 25.8892 173.307 25.8892C172.423 25.8892 171.694 25.9308 171.694 25.9828C171.694 26.0348 171.861 26.1701 172.059 26.2845C172.506 26.555 172.579 26.8463 172.371 27.4497C172.059 28.3548 169.468 34.524 169.406 34.524C169.354 34.524 166.618 28.386 166.201 27.3248C166.004 26.8151 166.097 26.4718 166.493 26.3053C166.659 26.2325 166.805 26.1076 166.805 26.0348C166.805 25.9204 166.441 25.8892 164.828 25.8892C163.278 25.8892 162.852 25.9204 162.852 26.0244Z" fill="#9B9996"/>
<path d="M167.179 42.2011C165.151 42.2531 165.109 42.2531 165.39 42.4404L165.671 42.6172V45.1661V47.7045L165.39 47.8606C165.12 47.9958 165.296 48.0166 167.315 48.0478C169.801 48.079 169.531 48.1727 169.676 47.2676C169.749 46.7994 169.666 46.7786 169.302 47.2155L169.021 47.5589L167.866 47.5901L166.711 47.6317V46.3521V45.0828L167.616 45.1453C168.376 45.1869 168.553 45.2389 168.698 45.4158C168.802 45.5406 168.906 45.6342 168.938 45.6342C168.969 45.6342 169 45.3325 169 44.958C169 44.5835 168.979 44.2818 168.948 44.2818C168.917 44.2818 168.802 44.3754 168.688 44.4898C168.511 44.6667 168.345 44.6979 167.596 44.6979H166.711V43.6576V42.6172H167.585C168.615 42.6172 168.958 42.7213 169.125 43.0854C169.312 43.5119 169.416 43.3871 169.416 42.7213C169.416 42.378 169.385 42.1075 169.343 42.1179C169.291 42.1283 168.324 42.1699 167.179 42.2011Z" fill="#9B9996"/>
<path d="M179.006 42.173C178.132 42.4851 177.758 42.9324 177.758 43.6503C177.758 44.4617 178.164 44.8987 179.589 45.6165C180.296 45.9702 180.775 46.4592 180.775 46.8337C180.775 47.177 180.307 47.6868 179.932 47.77C179.35 47.8949 178.684 47.7284 178.34 47.3643C178.164 47.1874 177.966 46.9482 177.893 46.8337C177.789 46.6569 177.768 46.7297 177.768 47.2707L177.758 47.9157L178.205 48.0509C178.933 48.259 180.234 48.2278 180.723 47.9677C181.285 47.6764 181.607 47.177 181.607 46.6049C181.607 45.7518 181.212 45.3356 179.714 44.6178C178.913 44.2329 178.59 43.8791 178.59 43.411C178.6 42.8388 179.017 42.5163 179.734 42.5163C180.265 42.5163 180.889 42.8284 181.087 43.1821C181.305 43.5983 181.399 43.5046 181.399 42.8908V42.329L180.744 42.2146C180.057 42.1002 179.277 42.0793 179.006 42.173Z" fill="#9B9996"/>
<path d="M139.984 42.3197C139.984 42.3717 140.057 42.4237 140.14 42.4237C140.442 42.4237 140.505 42.8295 140.505 44.7853C140.505 46.6267 140.525 46.762 140.744 47.1573C141.077 47.7503 141.701 48.0624 142.637 48.1248C143.958 48.2081 144.832 47.8543 145.269 47.0637C145.415 46.8036 145.457 46.3562 145.498 44.6605C145.55 42.6214 145.561 42.5798 145.79 42.4758C146.206 42.2885 146.029 42.2157 145.165 42.2157L144.302 42.2261L144.593 42.4341L144.874 42.6526V44.6397C144.874 46.7932 144.832 46.97 144.323 47.355C143.927 47.6463 142.658 47.7191 142.18 47.4798C141.503 47.1261 141.441 46.8764 141.441 44.6397C141.441 42.7462 141.451 42.6214 141.649 42.507C142.023 42.2677 141.878 42.2157 140.921 42.2157C140.369 42.2157 139.984 42.2573 139.984 42.3197Z" fill="#9B9996"/>
<path d="M147.461 42.3225C147.461 42.3745 147.503 42.4265 147.555 42.4265C147.607 42.4265 147.731 42.4994 147.815 42.593C147.96 42.7282 147.981 43.1132 147.981 45.1834V47.6179L147.711 47.8259L147.43 48.0444H148.252H149.073L148.813 47.8363C148.553 47.6387 148.553 47.6283 148.522 45.662C148.501 44.4032 148.522 43.6749 148.595 43.6749C148.647 43.6749 149.5 44.6113 150.478 45.7556C152.299 47.8779 152.569 48.1484 152.892 48.1484C153.058 48.1484 153.079 47.9404 153.1 45.3603C153.131 42.593 153.131 42.5826 153.37 42.4785C153.786 42.2913 153.609 42.2185 152.756 42.2185H151.914L152.236 42.5202L152.559 42.8219V44.7049C152.559 45.7452 152.517 46.5879 152.465 46.5879C152.413 46.5879 151.539 45.61 150.53 44.4032L148.678 42.2185H148.064C147.731 42.2185 147.461 42.2601 147.461 42.3225Z" fill="#9B9996"/>
<path d="M155.531 42.4576L155.843 42.7073L155.874 44.8816C155.916 47.42 155.885 47.6697 155.5 47.8778C155.24 48.013 155.292 48.0234 156.311 48.0234C157.341 48.0234 157.383 48.013 157.123 47.8674L156.831 47.7113V45.1833V42.6449L157.123 42.4264L157.403 42.2183L156.311 42.2079H155.219L155.531 42.4576Z" fill="#9B9996"/>
<path d="M158.07 42.3198C158.07 42.3718 158.133 42.4239 158.206 42.4239C158.476 42.4239 158.674 42.7984 159.87 45.4409C160.921 47.792 161.087 48.0938 161.295 48.0938C161.514 48.0938 161.649 47.8129 162.658 45.4617C163.751 42.8816 163.99 42.4239 164.281 42.4239C164.354 42.4239 164.416 42.3718 164.416 42.3198C164.416 42.2574 164.073 42.2158 163.584 42.2158C162.731 42.2158 162.596 42.2782 162.96 42.5071C163.074 42.5799 163.168 42.6839 163.168 42.7464C163.168 42.9336 161.587 46.6893 161.503 46.6893C161.368 46.6893 159.704 42.7464 159.766 42.5799C159.808 42.4967 159.901 42.4239 159.995 42.4239C160.078 42.4239 160.151 42.3718 160.151 42.3198C160.151 42.2574 159.735 42.2158 159.111 42.2158C158.486 42.2158 158.07 42.2574 158.07 42.3198Z" fill="#9B9996"/>
<path d="M171.188 42.2705C171.188 42.3017 171.302 42.3745 171.448 42.4265L171.708 42.5306V45.121V47.7219L171.427 47.8779C171.156 48.0236 171.198 48.034 172.228 48.034C173.071 48.034 173.279 48.0132 173.112 47.9196C172.706 47.7011 172.644 47.5138 172.644 46.4735C172.644 45.9117 172.686 45.4331 172.738 45.3915C172.79 45.3603 173.029 45.4123 173.258 45.506C173.58 45.6308 173.83 45.8909 174.454 46.7336C175.318 47.9196 175.64 48.1484 176.431 48.1484C176.982 48.1484 177.034 48.0652 176.608 47.8155C176.431 47.7219 176.077 47.3474 175.796 46.9937C175.526 46.6295 175.099 46.099 174.86 45.7973L174.423 45.2459L174.766 45.1314C175.775 44.7985 176.16 43.4461 175.422 42.7594C174.943 42.3017 174.517 42.2185 172.8 42.2185C171.916 42.2185 171.188 42.2393 171.188 42.2705ZM174.09 42.697C174.61 42.9051 174.829 43.2276 174.829 43.8102C174.829 44.6321 174.204 45.0898 173.164 45.0066L172.696 44.9754L172.665 43.8414C172.644 42.9987 172.675 42.6762 172.769 42.6138C172.987 42.4785 173.653 42.5202 174.09 42.697Z" fill="#9B9996"/>
<path d="M183.304 42.4576L183.616 42.7073L183.648 44.7776C183.689 47.316 183.648 47.6697 183.273 47.8778C183.013 48.013 183.065 48.0234 184.085 48.0234C185.114 48.0234 185.156 48.013 184.896 47.8674L184.605 47.7113V45.1833V42.6449L184.896 42.4264L185.177 42.2183L184.085 42.2079H182.992L183.304 42.4576Z" fill="#9B9996"/>
<path d="M185.969 42.7801C185.969 43.0922 186.021 43.3523 186.073 43.3523C186.135 43.3523 186.177 43.3003 186.177 43.2483C186.177 43.1858 186.27 43.0506 186.385 42.9361C186.562 42.7593 186.728 42.7281 187.425 42.7281H188.258V45.1625V47.5969L187.977 47.8154L187.685 48.0234H188.726H189.766L189.485 47.8154L189.194 47.5969V45.1625V42.7281H190.016C190.806 42.7281 190.848 42.7385 191.098 43.0402C191.243 43.2066 191.389 43.3523 191.42 43.3523C191.451 43.3523 191.483 43.0922 191.483 42.7801V42.2079H188.726H185.969V42.7801Z" fill="#9B9996"/>
<path d="M191.891 42.2677C191.891 42.2989 192.005 42.4238 192.14 42.5278C192.276 42.6319 192.796 43.3705 193.285 44.1612L194.179 45.6072V46.5644C194.179 47.4695 194.159 47.5319 193.909 47.7712L193.628 48.0312H194.596H195.563L195.345 47.792C195.136 47.5735 195.116 47.4383 195.116 46.5123V45.472L195.896 44.182C196.322 43.4641 196.853 42.7255 197.061 42.5382L197.436 42.2053H196.697C196.27 42.2053 195.948 42.2469 195.948 42.3093C195.948 42.3614 196 42.4134 196.052 42.4134C196.281 42.4134 196.125 42.8191 195.511 43.8907C194.96 44.8582 194.856 44.983 194.752 44.827C194.273 44.1195 193.555 42.8191 193.555 42.6735C193.555 42.5694 193.638 42.4238 193.742 42.351C193.888 42.2365 193.774 42.2157 192.91 42.2053C192.348 42.2053 191.891 42.2365 191.891 42.2677Z" fill="#9B9996"/>
</svg>
