<svg width="304" height="73" viewBox="0 0 304 73" fill="none" xmlns="http://www.w3.org/2000/svg">
<path d="M79.7623 26.7005L79.5657 26.7485L79.9939 26.8272C80.7191 26.9582 81.0861 27.2073 81.2041 27.6616C81.2915 27.9806 81.0992 28.3519 80.7541 28.5398C80.5968 28.6228 80.5051 28.6359 80.09 28.6359C79.5177 28.6316 79.1114 28.5311 77.272 27.9413C75.2536 27.2946 74.6812 27.1592 73.9953 27.1636C73.4536 27.1679 73.0254 27.2815 72.4531 27.5743C71.4569 28.0854 70.8933 28.9942 70.8933 30.0952C70.8933 30.7549 71.0987 31.2923 71.5137 31.7073C71.8633 32.0612 72.4662 32.3277 72.1516 31.9869C71.7802 31.5937 71.7933 30.9122 72.1822 30.4578C72.4356 30.1694 72.6715 30.0777 73.187 30.0777C73.6589 30.082 73.7463 30.1039 76.8133 30.9296C78.041 31.2573 79.072 31.5063 79.5788 31.585L79.8934 31.6374V33.1534V34.6695L79.1725 35.2549C78.622 35.7005 78.4648 35.8535 78.5084 35.8884C78.539 35.9102 78.8667 36.1768 79.2293 36.4738L79.8934 37.02L79.8847 39.1389L79.8716 41.2622L79.5002 41.4501C78.6046 41.8957 77.3157 42.005 76.372 41.7166C75.9744 41.5943 75.2973 41.2448 74.9259 40.9695C74.5895 40.7205 74.1701 40.3273 74.1701 40.2574C74.1701 40.2355 74.9958 39.7986 76.005 39.2962L77.84 38.3787V35.1369C77.84 33.35 77.8269 31.8908 77.8138 31.8908C77.7963 31.8908 76.774 32.3452 75.5376 32.9C74.3011 33.4549 73.2832 33.9049 73.2744 33.8962C73.2438 33.8612 73.5628 33.2321 73.7943 32.8782C74.1264 32.367 74.572 31.9126 75.1138 31.5369C75.4764 31.2835 75.555 31.2092 75.4764 31.2005C75.3191 31.1743 74.7905 31.3665 74.1701 31.6811C72.1997 32.6685 70.7317 34.5952 70.3909 36.6486C70.2861 37.2646 70.3166 38.5273 70.4521 39.1739C71.0899 42.2453 73.6589 44.3598 76.7478 44.3555C77.4424 44.3555 77.8138 44.2943 78.4735 44.0758C78.9672 43.9098 79.7667 43.5297 80.1555 43.272C80.9944 42.7171 81.7065 41.804 82.126 40.7554C82.4187 40.0346 82.5628 39.3923 82.5891 38.7064C82.6022 38.3831 82.6022 38.1253 82.5891 38.1384C82.576 38.1515 82.4755 38.3394 82.3662 38.5535C81.9075 39.4753 81.1823 40.3491 80.4002 40.9215C80.2604 41.0263 80.1293 41.1093 80.1075 41.1093C80.0856 41.1093 80.0682 40.2355 80.0682 39.0778V37.0505L80.7803 36.4695C81.1691 36.1505 81.4925 35.8666 81.4925 35.8447C81.4925 35.8185 81.1735 35.5389 80.7803 35.2156L80.0682 34.6301L80.0769 33.1403L80.09 31.6505L80.3958 31.6156C81.0293 31.55 81.5798 31.3097 82.0255 30.9034C82.3619 30.602 82.5279 30.3486 82.6633 29.9335C82.8119 29.4704 82.8337 29.3437 82.8294 28.9199C82.825 28.5092 82.7289 28.1291 82.5454 27.8146C82.292 27.382 81.6104 26.9277 80.9638 26.7573C80.6187 26.6699 80.0114 26.6393 79.7623 26.7005ZM75.0439 36.4564V39.5802L74.5633 39.8205C74.3011 39.9515 74.0652 40.0608 74.0434 40.0608C74.0172 40.0608 73.921 39.9472 73.8293 39.8074C73.4055 39.187 72.973 38.1078 72.8375 37.3345C72.7545 36.8408 72.7545 36.0238 72.8419 35.4428C72.9118 34.9709 73.0953 34.2588 73.1696 34.1845C73.2089 34.1452 74.9434 33.3457 75.0133 33.3369C75.0308 33.3326 75.0439 34.7394 75.0439 36.4564Z" fill="#9B9996"/>
<path d="M195.411 26.7043C195.324 26.7218 195.241 26.748 195.228 26.7611C195.215 26.7698 195.367 26.8048 195.564 26.8354C196.08 26.914 196.346 27.0276 196.556 27.2548C196.766 27.482 196.822 27.6087 196.822 27.849C196.822 28.2028 196.569 28.4999 196.149 28.631C195.879 28.7184 195.271 28.6572 194.616 28.4825C194.306 28.3995 193.489 28.1504 192.803 27.932C191.392 27.482 190.553 27.2548 190.138 27.2111C189.98 27.1936 189.806 27.1761 189.749 27.1674C189.552 27.1368 188.936 27.2373 188.578 27.3596C187.158 27.849 186.367 29.033 186.52 30.4441C186.59 31.1082 186.944 31.6849 187.468 31.9995C187.844 32.2267 187.905 32.2179 187.713 31.9689C187.451 31.6194 187.407 31.2218 187.595 30.8024C187.792 30.3568 188.128 30.1296 188.644 30.0859C189.019 30.0553 189.299 30.1121 190.859 30.5315C192.777 31.047 194.572 31.4971 195.066 31.5844L195.512 31.6587V33.1704V34.682L194.791 35.2675C194.393 35.5908 194.07 35.8573 194.07 35.8617C194.07 35.866 194.393 36.1325 194.791 36.4558L195.512 37.0413L195.499 39.1602L195.49 41.2792L195.118 41.4627C194.201 41.9127 192.934 42.0263 191.99 41.7335C191.309 41.5238 190.601 41.1044 190.064 40.5845L189.727 40.2656L191.58 39.3306L193.436 38.3957L193.449 35.1451C193.458 32.065 193.454 31.899 193.384 31.9208C193.34 31.9296 192.318 32.3883 191.108 32.9344C189.897 33.4806 188.897 33.9175 188.888 33.9044C188.845 33.865 189.325 32.9869 189.565 32.6636C189.902 32.2136 190.247 31.8815 190.776 31.5058L191.208 31.2L190.998 31.2262C190.719 31.2611 189.849 31.6194 189.404 31.8859C188.045 32.6985 186.953 33.9349 186.38 35.3155C185.69 36.9801 185.786 39.1559 186.621 40.8248C187.643 42.8564 189.53 44.1365 191.842 44.3593C193.122 44.486 194.529 44.0972 195.765 43.2802C196.918 42.5156 197.783 41.1394 198.111 39.5316C198.194 39.1209 198.251 38.199 198.194 38.199C198.172 38.199 198.102 38.3126 198.041 38.4481C197.753 39.0991 197.023 40.0777 196.468 40.5627C196.123 40.8598 195.774 41.1263 195.726 41.1263C195.704 41.1263 195.686 40.2088 195.691 39.0816V37.0413L196.412 36.4602C196.805 36.1413 197.119 35.8617 197.106 35.8398C197.093 35.818 196.77 35.5427 196.385 35.2282L195.686 34.6558V33.1573V31.6587L196.005 31.6325C196.63 31.5801 197.194 31.3267 197.692 30.8723C198.417 30.2169 198.657 28.8669 198.216 27.9451C197.984 27.4601 197.268 26.9533 196.565 26.7742C196.237 26.6912 195.647 26.6562 195.411 26.7043ZM190.618 36.4864V39.6233L190.133 39.8593L189.648 40.0995L189.526 39.9554C189.203 39.5665 188.731 38.5311 188.539 37.7709C188.333 36.9757 188.333 35.8748 188.539 34.966C188.718 34.1665 188.661 34.2277 189.701 33.7602C190.195 33.5374 190.601 33.3539 190.61 33.3539C190.614 33.3495 190.618 34.7607 190.618 36.4864Z" fill="#9B9996"/>
<path d="M174.141 28.5156L172.424 29.7302L172.586 29.7651C172.673 29.7826 172.8 29.835 172.87 29.8831C173.023 29.9923 173.241 30.438 173.302 30.7525C173.329 30.9011 173.346 32.9414 173.346 36.3535V41.7143L172.686 42.2953C172.101 42.8065 172.035 42.8808 172.097 42.9376C172.153 42.9944 172.201 42.9638 172.542 42.6667L172.922 42.3347L173.648 43.0293C174.045 43.4094 174.473 43.8114 174.591 43.9206L174.814 44.1172L176.199 42.8982C177.16 42.0507 177.575 41.6575 177.558 41.6138C177.54 41.5788 177.514 41.5482 177.492 41.5482C177.475 41.5482 177.313 41.6749 177.138 41.8322C176.964 41.9895 176.806 42.1162 176.793 42.1162C176.78 42.1162 176.575 41.9065 176.334 41.6487L175.902 41.1812L175.88 34.239L175.858 27.3011L174.141 28.5156Z" fill="#9B9996"/>
<path d="M117.238 27.3692C117.22 27.3867 117.207 27.4435 117.207 27.4959C117.207 27.6575 116.95 28.1119 116.77 28.2779C116.495 28.527 116.264 28.6231 115.897 28.6449C115.333 28.6799 114.787 28.4876 114.276 28.0726C114.127 27.9546 113.992 27.876 113.974 27.8978C113.957 27.9153 113.406 28.5532 112.751 29.309C112.096 30.0648 111.506 30.7377 111.445 30.8076C111.349 30.9124 111.344 30.9343 111.401 30.9911C111.462 31.0522 111.51 31.0129 111.851 30.6197L112.231 30.1828L112.546 30.4275C113.092 30.8556 113.612 31.0697 114.236 31.1352L114.564 31.1658L114.577 34.8794C114.582 37.2256 114.573 38.5756 114.547 38.5494C114.52 38.5232 113.363 36.4129 111.965 33.8527C110.567 31.2925 109.334 29.0687 109.225 28.9027C108.605 27.9808 107.556 27.5177 106.591 27.7405C105.791 27.924 105.014 28.7323 104.826 29.5755C104.747 29.9207 104.703 30.7071 104.747 30.9692L104.778 31.1658L104.878 30.86C105.14 30.0605 105.586 29.7896 106.176 30.0692C106.438 30.1915 106.604 30.3619 106.87 30.7726L107.071 31.0741V32.4372V33.7959L106.757 33.8265C105.372 33.962 104.599 34.5518 104.437 35.6047C104.323 36.3343 104.708 37.2562 105.271 37.6144C105.437 37.7193 105.949 37.9159 106.053 37.9159C106.067 37.9159 106.005 37.8372 105.918 37.7367C105.726 37.527 105.673 37.4047 105.673 37.1557C105.673 36.7625 106.036 36.4785 106.582 36.4392C106.766 36.4261 106.918 36.4392 106.975 36.4697L107.071 36.5222V38.4576V40.3931L106.691 40.4193C105.21 40.5198 104.197 41.1795 103.751 42.3373C103.362 43.3465 103.533 44.3164 104.232 45.0548C104.712 45.5572 105.25 45.8237 105.927 45.8892C106.097 45.9067 106.35 45.9067 106.49 45.8892L106.744 45.8587L106.429 45.78C106.036 45.6795 105.804 45.5572 105.555 45.33C105.044 44.8582 105.009 44.1984 105.472 43.6523C105.892 43.1586 106.8 43.163 107.556 43.6654C107.714 43.7703 107.928 43.945 108.024 44.0499L108.203 44.2465L109.54 42.7567C110.274 41.9397 110.868 41.245 110.859 41.2188C110.82 41.1008 110.698 41.1839 110.379 41.5421L110.042 41.9266L109.811 41.7038C109.195 41.1052 108.334 40.6377 107.53 40.4761L107.268 40.4237L107.255 35.9061C107.25 33.4202 107.264 31.4061 107.281 31.428C107.303 31.4542 108.858 34.3027 110.741 37.763C112.62 41.2232 114.202 44.098 114.25 44.1548C114.324 44.2378 114.381 44.2509 114.542 44.2421L114.739 44.229L114.761 37.6974L114.783 31.1658L114.914 31.1527C115.202 31.1221 115.586 30.9998 115.967 30.8163C116.303 30.6546 116.417 30.5716 116.679 30.2877C117.199 29.7284 117.47 29.0687 117.47 28.3478C117.47 27.8847 117.325 27.2818 117.238 27.3692Z" fill="#9B9996"/>
<path d="M85.2932 28.7411C84.4282 29.4139 83.7029 29.9819 83.6855 29.9994C83.668 30.0169 83.7466 30.0911 83.8646 30.1654C84 30.2484 84.1049 30.3576 84.1617 30.4669C84.2403 30.6329 84.2447 30.7945 84.2578 36.1028L84.2665 41.5684L83.5675 42.0927C82.9646 42.5471 82.8772 42.6257 82.9253 42.6869C82.9733 42.7524 83.0126 42.7305 83.2923 42.5208C83.467 42.3898 83.6199 42.2805 83.6374 42.2805C83.6636 42.2805 84.568 43.1194 85.2365 43.7616L85.4855 43.9975L86.9491 42.8223C88.0675 41.9267 88.3996 41.6339 88.3646 41.5946C88.3384 41.564 88.3078 41.5378 88.2904 41.5378C88.2773 41.5378 88.1156 41.6558 87.9365 41.8L87.6088 42.0621L87.2505 41.7038L86.8879 41.3412V38.366V35.3863L87.2986 35.0324C87.5258 34.8358 87.7224 34.6785 87.7355 34.6785C87.7486 34.6785 88.037 35.0237 88.3734 35.4431L88.9894 36.212L88.9719 39.7378C88.9544 43.3859 88.9501 43.5039 88.7622 44.2378C88.6268 44.784 88.4476 45.0942 88.0151 45.5398C87.6001 45.968 87.3554 46.1252 86.8704 46.2825C86.5734 46.3743 86.5646 46.383 86.6913 46.418C86.7656 46.4354 87.1282 46.4529 87.4996 46.4485C88.1025 46.4442 88.2205 46.4311 88.57 46.3262C90.0292 45.8893 90.9598 44.9675 91.3617 43.5825C91.5452 42.9446 91.5715 42.464 91.602 38.7854L91.6282 35.3164L91.9122 35.0936C92.5326 34.6174 92.502 34.648 92.4409 34.5737C92.3928 34.5169 92.3273 34.5475 91.9428 34.8402L91.5059 35.1722L91.3486 34.9931C90.6671 34.2023 89.5224 32.9353 89.4875 32.9353C89.4656 32.9353 88.8758 33.4246 88.1768 34.0319L86.9098 35.1285L86.8879 31.3232L86.8661 27.5178L85.2932 28.7411Z" fill="#9B9996"/>
<path d="M150.548 29.132L149.171 30.2505L149.158 29.1932C149.15 28.2189 149.141 28.1403 149.071 28.1534C149.001 28.1665 148.997 28.6077 148.984 35.952L148.975 43.7331L148.769 43.6719C148.595 43.6195 147.987 43.4972 147.481 43.4142L147.315 43.388V36.7297C147.315 32.068 147.301 30.0014 147.267 29.8398C147.114 29.0927 146.559 28.4723 145.838 28.232C144.829 27.9 143.881 28.1272 143.12 28.8874C142.622 29.3854 142.33 30.0233 142.338 30.5956V30.8315L142.395 30.6568C142.557 30.1456 142.871 29.7524 143.182 29.6694C143.776 29.5078 144.269 29.9228 144.387 30.6786C144.409 30.8359 144.431 31.7927 144.431 32.85V34.7374L144.226 34.7636C143.492 34.8597 142.959 35.0826 142.592 35.4408C142.29 35.7379 142.124 35.9957 142.019 36.3277C141.832 36.9306 142.011 37.7127 142.448 38.1933C142.653 38.4204 143.077 38.6302 143.33 38.6302H143.527L143.383 38.5297C143.05 38.3068 142.959 37.9967 143.129 37.669C143.278 37.385 143.553 37.2539 144.007 37.2539C144.261 37.2539 144.357 37.2714 144.387 37.3195C144.414 37.3588 144.431 38.5952 144.431 40.4651V43.5452L144.23 43.6282C143.916 43.7549 143.383 44.1219 143.12 44.3928C142.854 44.6681 142.618 45.0744 142.526 45.4195C142.448 45.7122 142.452 46.3588 142.531 46.704C142.727 47.5428 143.278 48.2812 143.92 48.5827C144.405 48.8098 144.763 48.8754 145.545 48.8754C146.38 48.871 146.799 48.8142 148.494 48.456C150.893 47.9535 151.635 47.8836 151.998 48.1239C152.234 48.2856 152.317 48.4778 152.317 48.8535C152.313 49.2555 152.217 49.4696 151.871 49.7972C151.614 50.0463 151.618 50.0506 152.12 49.8933C152.907 49.6487 153.571 49.1375 153.846 48.5739C154.047 48.1589 154.13 47.8181 154.13 47.3856C154.13 46.5423 153.719 45.9132 152.846 45.4239C152.404 45.1792 152.112 45.1181 151.334 45.1224C150.548 45.1312 149.988 45.2054 148.132 45.5593C145.956 45.9744 145.095 46.0574 144.58 45.9045C143.767 45.6642 143.557 44.6069 144.195 43.9952C144.912 43.3137 146.773 43.3093 149.237 43.9865C150.6 44.3579 150.875 44.4103 151.574 44.4147C152.247 44.419 152.487 44.371 152.964 44.1307C153.466 43.8773 153.75 43.5015 153.942 42.8462C154.012 42.6015 154.021 42.1428 154.034 36.2928L154.047 30.0014L154.545 29.5645C154.986 29.1844 155.039 29.1233 154.986 29.0665C154.93 29.0141 154.864 29.0534 154.458 29.4073C154.204 29.6301 153.982 29.8048 153.96 29.7961C153.938 29.7874 153.479 29.3854 152.937 28.8961C152.391 28.4111 151.946 28.0136 151.937 28.0136C151.928 28.0136 151.303 28.516 150.548 29.132ZM150.495 30.5913L151.116 31.1374V33.0685V34.9952L150.976 35.1175C150.46 35.55 149.822 35.5413 149.311 35.0913L149.15 34.9515V32.732V30.5082L149.468 30.2505C149.639 30.1063 149.805 30.0014 149.831 30.0189C149.857 30.032 150.154 30.2898 150.495 30.5913ZM149.394 35.4277C149.735 35.6855 150.277 35.7335 150.679 35.5457C150.81 35.4845 150.963 35.3927 151.019 35.3447L151.116 35.2529V36.1573V37.0617L150.985 36.9699C150.46 36.5942 149.814 36.603 149.302 36.9962L149.15 37.1098V36.1879C149.15 35.4583 149.163 35.266 149.206 35.2923C149.233 35.3097 149.32 35.3709 149.394 35.4277ZM150.556 36.9962C150.666 37.0311 150.836 37.1316 150.936 37.219L151.12 37.3719L151.107 40.0457C151.094 42.702 151.094 42.7151 150.998 42.9248C150.862 43.2132 150.5 43.5846 150.246 43.6938C149.988 43.803 149.621 43.8511 149.351 43.8117L149.15 43.7812V40.6006V37.4243L149.294 37.2889C149.416 37.1665 149.665 37.0224 149.849 36.9568C149.984 36.9088 150.364 36.9306 150.556 36.9962Z" fill="#9B9996"/>
<path d="M200.418 29.9659C199.82 30.5164 199.479 30.8615 199.501 30.8921C199.58 31.0275 201.013 32.5872 201.043 32.5741C201.065 32.5654 201.506 32.1722 202.026 31.696L202.97 30.8309L202.83 30.6693C202.267 30.0227 201.419 29.0877 201.397 29.0877C201.38 29.0877 200.938 29.4809 200.418 29.9659Z" fill="#9B9996"/>
<path d="M125.966 30.9256C125.341 31.0086 124.93 31.227 124.415 31.7469C123.873 32.2931 123.672 32.7212 123.672 33.3329C123.672 34.0931 123.829 34.412 124.568 35.1373C124.886 35.4475 125.197 35.7926 125.258 35.9018C125.498 36.3213 125.507 36.4217 125.507 39.4407V42.215L125.026 42.5645C124.76 42.7524 124.546 42.9359 124.546 42.9664C124.546 43.1019 124.672 43.0495 125.114 42.7218L125.59 42.3723L126.682 43.2898C127.285 43.7922 127.787 44.2029 127.805 44.2029C127.822 44.2029 128.36 43.7791 129.006 43.2635C129.653 42.748 130.195 42.3242 130.208 42.3242C130.225 42.3242 130.776 42.7567 131.436 43.281L132.633 44.2422L133.297 43.8271C133.664 43.5999 134.73 42.9402 135.665 42.3548L137.369 41.2975L137.382 38.5188L137.39 35.7402L138.225 35.0018C138.684 34.5955 139.103 34.2285 139.151 34.1892C139.239 34.1237 139.239 34.1062 139.182 34.045C139.121 33.9882 139.072 34.0144 138.723 34.329C138.505 34.5212 138.312 34.6785 138.295 34.6785C138.273 34.6785 137.805 34.3028 137.255 33.8441C136.705 33.3853 136.237 33.0183 136.215 33.0271C136.193 33.0358 135.7 33.4814 135.114 34.0188C134.529 34.5606 134.039 35.0062 134.035 35.0106C134.026 35.0193 134.214 35.2115 134.459 35.4475L134.9 35.8669V39.2441V42.6213L134.743 42.713C134.66 42.7655 134.568 42.8048 134.546 42.8048C134.524 42.8048 134.092 42.4596 133.589 42.0402L132.672 41.2713V38.4533V35.631L133.043 35.2334C133.249 35.0106 133.415 34.8183 133.415 34.8052C133.415 34.7572 131.444 33.0139 131.409 33.0271C131.392 33.0358 130.889 33.4727 130.3 34.0013L129.22 34.9625L129.657 35.3994L130.094 35.8363V39.0082V42.1757L129.876 42.3417L129.657 42.5077L128.993 41.9703C128.626 41.6776 128.272 41.3849 128.207 41.3281L128.085 41.2145V38.1999C128.085 34.945 128.08 34.9276 127.853 34.5343C127.687 34.2591 127.337 33.9445 126.752 33.5426C125.852 32.9309 125.537 32.5377 125.533 32.0309C125.533 31.7382 125.708 31.3843 125.992 31.1178C126.114 31.0042 126.206 30.9081 126.197 30.9037C126.188 30.8994 126.088 30.9081 125.966 30.9256Z" fill="#9B9996"/>
<path d="M234.886 32.723C234.829 33.3478 234.436 33.6885 233.724 33.7366C233.427 33.7541 233.388 33.7453 233.09 33.6012C232.916 33.5138 232.658 33.3347 232.514 33.2036C232.37 33.0681 232.234 32.9633 232.208 32.9764C232.186 32.9851 231.793 33.2385 231.334 33.5356C230.299 34.2128 229.774 34.5317 228.901 35.0036L228.21 35.375L228.215 36.7992V38.2235L228.936 38.8789C229.333 39.2371 229.696 39.5779 229.748 39.6303L229.84 39.7264L229.351 40.2376C228.014 41.6269 227.664 42.3522 227.865 43.3221C228.031 44.1085 228.704 44.7857 229.455 44.9255C229.744 44.9779 229.783 44.943 229.565 44.825C228.831 44.4318 228.691 43.7939 229.254 43.4138C229.753 43.0774 230.338 43.2347 231.041 43.8988C231.212 44.0605 231.29 44.1085 231.334 44.0779C232.654 43.1561 233.44 42.6536 234.488 42.0595L235.244 41.6313L235.24 39.7527V37.874L234.454 37.2405C234.021 36.891 233.628 36.5764 233.58 36.5415C233.497 36.4759 233.501 36.4628 233.807 36.0827C234.703 34.9686 235.157 33.955 235.1 33.173C235.087 32.9895 235.043 32.758 234.995 32.6487L234.908 32.4565L234.886 32.723ZM231.229 34.9686C232.173 35.8992 233.221 35.9342 234.191 35.0691L234.471 34.8201L234.366 35.0036C234.178 35.3313 233.698 35.9604 233.248 36.4628C232.789 36.974 231.749 37.9526 231.64 37.9745C231.605 37.9832 231.369 37.8041 231.116 37.5813L230.657 37.175V35.7114V34.2478L230.814 34.4837C230.902 34.6104 231.089 34.8288 231.229 34.9686ZM232.335 38.573L232.837 39.0099V40.8449L232.841 42.6799L232.632 42.3129C231.823 40.8755 230.312 40.3949 229.115 41.19C228.984 41.2774 228.743 41.4871 228.586 41.6575C228.429 41.8235 228.298 41.9459 228.298 41.924C228.298 41.8716 228.582 41.4041 228.787 41.1289C228.979 40.8667 231.745 38.1056 231.797 38.123C231.815 38.1318 232.055 38.3327 232.335 38.573Z" fill="#9B9996"/>
<path d="M177.573 35.2165C176.712 36.4792 176.004 37.5277 176 37.5452C175.991 37.567 176.9 39.0481 178.01 40.8438C179.827 43.7666 180.046 44.0986 180.111 44.0506C180.325 43.8977 183.043 41.4729 183.043 41.4379C183.043 41.4161 183.012 41.3855 182.977 41.3724C182.938 41.3549 182.768 41.4773 182.514 41.7044C182.296 41.8967 182.099 42.054 182.077 42.0452C182.055 42.0365 181.055 40.5379 179.858 38.7117C178.268 36.2913 177.686 35.3738 177.713 35.3258C177.853 35.0767 177.844 35.0767 178.241 35.317C178.792 35.6534 179.207 35.7801 179.744 35.7801C180.094 35.7758 180.234 35.7583 180.43 35.6797C181.234 35.3651 181.846 34.4782 182.099 33.2505C182.134 33.0845 182.156 32.9359 182.147 32.9272C182.138 32.9185 182.034 32.9971 181.92 33.0976C181.806 33.2025 181.562 33.3554 181.383 33.4427C181.077 33.5913 181.029 33.6 180.64 33.6C180.269 33.6 180.194 33.5826 179.941 33.4646C179.784 33.3903 179.543 33.2374 179.408 33.1282C179.268 33.0146 179.15 32.9228 179.146 32.9228C179.137 32.9228 178.429 33.9539 177.573 35.2165Z" fill="#9B9996"/>
<path d="M159.445 33.6222C158.846 33.9717 157.859 34.5047 157.256 34.8106L156.164 35.3611L156.168 38.4892C156.168 40.2106 156.155 41.648 156.138 41.6873C156.12 41.7266 155.95 41.8927 155.758 42.0587C155.452 42.3165 155.412 42.3689 155.465 42.4213C155.539 42.4912 155.565 42.4737 156.002 42.0936L156.256 41.8708L157.601 43.0155L158.947 44.1602L159.982 43.5398C160.917 42.9762 162.997 41.8097 163.412 41.613L163.574 41.5344V38.5766V35.6188L163.967 35.2475C164.312 34.9285 164.356 34.8717 164.294 34.8237C164.22 34.7625 164.203 34.7756 163.696 35.2562L163.451 35.4921L162.018 34.2382C161.232 33.5523 160.576 32.9887 160.563 32.9887C160.55 32.9887 160.048 33.2771 159.445 33.6222ZM160.052 35.5009L160.992 36.3747V39.5596L160.996 42.7402L160.834 42.5961C160.742 42.5174 160.231 42.0543 159.698 41.565L158.724 40.6737V37.4844V34.2907L158.921 34.4567C159.025 34.5528 159.537 35.0203 160.052 35.5009Z" fill="#9B9996"/>
<path d="M98.1478 33.1619C97.2871 33.708 95.391 34.8133 94.6701 35.2022L93.7832 35.6697V38.658V41.642L93.3682 41.9785C93.141 42.1619 92.9531 42.3236 92.9531 42.3411C92.9531 42.3585 92.975 42.3935 93.0056 42.4241C93.0405 42.459 93.1366 42.4066 93.39 42.1969C93.5735 42.044 93.7658 41.8954 93.8138 41.8649C93.8968 41.8124 94.0017 41.8954 95.1813 42.9702C95.8847 43.6124 96.4701 44.1367 96.4876 44.1367C96.5007 44.1367 97.4881 43.359 98.6765 42.4066C99.8648 41.4542 100.878 40.6503 100.926 40.6153C101.001 40.5629 101.005 40.5454 100.944 40.4886C100.883 40.4275 100.747 40.5236 99.6333 41.4061L98.3925 42.3891L98.174 42.1794C98.0561 42.0615 97.5973 41.6289 97.1604 41.2139L96.3609 40.4581V40.0954V39.7284L98.4056 38.2124C99.5284 37.3779 100.442 36.6745 100.433 36.6483C100.411 36.5653 98.3925 33.0395 98.3663 33.0395C98.3532 33.0395 98.257 33.0963 98.1478 33.1619ZM97.4313 36.2507C97.9731 37.1813 98.4056 37.959 98.3925 37.9765C98.3619 38.0245 96.4177 39.4619 96.3871 39.4619C96.3697 39.4619 96.3609 38.326 96.3609 36.9367C96.3653 35.307 96.3784 34.442 96.4046 34.4857C96.4265 34.525 96.8896 35.3201 97.4313 36.2507Z" fill="#9B9996"/>
<path d="M121.273 33.1619C120.395 33.7211 118.516 34.8177 117.795 35.2022L116.908 35.6697V38.6537V41.642L116.493 41.9785C116.266 42.1663 116.078 42.328 116.078 42.3454C116.078 42.3585 116.1 42.3935 116.131 42.4241C116.166 42.459 116.262 42.4066 116.515 42.1969C116.699 42.044 116.891 41.8954 116.939 41.8649C117.022 41.8124 117.122 41.8911 118.306 42.9702C119.01 43.6124 119.595 44.1367 119.613 44.1367C119.626 44.1367 120.591 43.3721 121.758 42.4416C122.924 41.511 123.938 40.7071 124.008 40.6503C124.117 40.5629 124.126 40.5454 124.069 40.4843C124.012 40.4275 123.859 40.5367 122.763 41.4061L121.517 42.3891L121.277 42.1576C121.146 42.0309 120.687 41.594 120.264 41.192L119.486 40.4581V40.0911V39.7284L121.531 38.2168C122.653 37.3823 123.571 36.6876 123.571 36.6702C123.571 36.6221 121.522 33.0395 121.491 33.0395C121.478 33.0395 121.382 33.0963 121.273 33.1619ZM120.53 36.1983C121.085 37.1551 121.539 37.9503 121.535 37.9677C121.535 37.9983 119.604 39.427 119.525 39.4532C119.503 39.4619 119.486 38.5139 119.486 36.9454C119.486 35.5604 119.495 34.4332 119.503 34.442C119.512 34.4507 119.971 35.2415 120.53 36.1983Z" fill="#9B9996"/>
<path d="M165.944 34.1732C164.323 35.6368 164.459 35.5057 164.529 35.5844C164.577 35.6455 164.629 35.615 164.948 35.3222C165.149 35.1387 165.333 34.9989 165.354 35.0077C165.381 35.012 165.599 35.2873 165.839 35.6106L166.285 36.2004L166.259 38.931L166.233 41.6616L166.045 41.8364C165.944 41.9325 165.682 42.1728 165.468 42.3694C165.118 42.6883 165.084 42.7364 165.14 42.7932C165.202 42.8543 165.245 42.8238 165.586 42.5092L165.97 42.1553L166.071 42.2383C166.128 42.282 166.604 42.7145 167.133 43.1951C167.657 43.6801 168.111 44.0777 168.133 44.082C168.199 44.0864 170.951 41.7621 170.951 41.7009C170.951 41.5611 170.833 41.6179 170.422 41.9631C169.99 42.3257 169.977 42.3344 169.885 42.2602C169.833 42.2208 169.588 42.0068 169.343 41.7927L168.898 41.3995V38.2363V35.0776L169.199 35.3616C169.383 35.5319 169.623 35.7067 169.802 35.7941C170.077 35.9252 170.134 35.9383 170.514 35.9383C170.899 35.9383 170.955 35.9252 171.235 35.7897C172.039 35.3921 172.611 34.4048 172.611 33.4086V33.0679L172.41 33.247C172.301 33.3431 172.126 33.4611 172.026 33.5135C171.654 33.6882 171.082 33.5878 170.667 33.2732L170.475 33.1246L169.702 33.9067C169.278 34.3349 168.902 34.7281 168.867 34.7805C168.832 34.8285 168.788 34.8679 168.771 34.8679C168.749 34.8679 168.395 34.4528 167.98 33.9504C167.565 33.4436 167.22 33.0329 167.216 33.0329C167.211 33.0329 166.639 33.5441 165.944 34.1732Z" fill="#9B9996"/>
<path d="M214.01 34.0945C213.289 34.6668 212.691 35.1386 212.669 35.1386C212.652 35.1386 212.232 34.693 211.734 34.1425C211.236 33.5964 210.817 33.1464 210.799 33.142C210.786 33.1333 210.205 33.5833 209.506 34.1338C208.811 34.6843 208.226 35.1343 208.213 35.1255C208.2 35.1212 207.767 34.6668 207.256 34.1207L206.325 33.1246L206.212 33.2294C206.151 33.2862 205.534 33.828 204.844 34.4352C204.15 35.0425 203.586 35.545 203.586 35.5493C203.586 35.5581 203.612 35.5886 203.647 35.6149C203.695 35.6542 203.791 35.593 204.11 35.3134C204.333 35.1212 204.53 34.9639 204.547 34.9639C204.565 34.9639 204.857 35.2828 205.198 35.6717L205.814 36.3751V38.8348V41.2989L205.508 41.5916L205.202 41.8887L206.164 42.9809C206.688 43.5795 207.138 44.0775 207.155 44.0819C207.173 44.0906 207.636 43.6494 208.182 43.1033L209.178 42.1071L208.763 41.6615L208.348 41.2202V38.2493V35.2784L208.558 35.1081C208.671 35.0119 208.785 34.9202 208.816 34.9071C208.864 34.8765 210.174 36.3751 210.227 36.5149C210.24 36.5498 210.249 37.6683 210.244 39.0052V41.4343L209.991 41.6877C209.816 41.8668 209.746 41.963 209.772 42.0066C209.799 42.0503 211.284 43.7455 211.524 44.0076C211.572 44.0601 211.642 44.0076 212.044 43.6144C212.298 43.361 212.739 42.9067 213.027 42.6008L213.552 42.046L213.206 41.6833L212.857 41.3207L212.826 38.3061L212.796 35.2916L213.062 35.0818C213.206 34.9683 213.333 34.8765 213.346 34.8765C213.355 34.8765 213.691 35.2391 214.089 35.6804L214.814 36.4887V38.9222V41.36L214.57 41.6091L214.32 41.8581L215.338 42.9766C216.339 44.0732 216.361 44.095 216.448 44.0164C216.496 43.977 217.108 43.4135 217.807 42.7668C218.502 42.1159 219.078 41.5829 219.087 41.5785C219.109 41.5654 219.043 41.4299 219.008 41.4299C218.991 41.4299 218.834 41.561 218.663 41.7183C218.493 41.8756 218.336 41.9979 218.318 41.9892C218.296 41.9848 218.06 41.7314 217.789 41.4299L217.304 40.8838V38.0877L217.309 35.2916L217.768 34.9464C218.021 34.7542 218.235 34.5838 218.248 34.5619C218.261 34.5445 218.253 34.4964 218.231 34.4615C218.2 34.4047 218.108 34.4571 217.702 34.7716L217.208 35.1517L217.108 35.0469C217.055 34.9901 216.632 34.5139 216.173 33.9896C215.71 33.4697 215.33 33.0415 215.325 33.0459C215.321 33.0459 214.727 33.5178 214.01 34.0945Z" fill="#9B9996"/>
<path d="M223.589 33.7321C222.362 34.4791 221.641 34.8898 220.741 35.3617L220.182 35.6544V38.6428V41.6311L219.767 41.9675C219.539 42.151 219.352 42.3127 219.352 42.3302C219.352 42.3476 219.373 42.3826 219.4 42.4088C219.439 42.4481 219.544 42.3826 219.823 42.151C220.029 41.985 220.225 41.8365 220.252 41.8234C220.282 41.8103 220.881 42.3258 221.58 42.968C222.283 43.6059 222.873 44.1258 222.89 44.1171C222.943 44.0996 227.338 40.5913 227.369 40.5476C227.377 40.5258 227.364 40.4865 227.329 40.4603C227.281 40.4209 227.01 40.6175 226.032 41.3908L224.795 42.3695L224.503 42.103C224.341 41.9544 223.882 41.5263 223.489 41.1549L222.768 40.4777L222.764 40.0976L222.759 39.7132L223.659 39.0491C224.153 38.6821 225.075 37.9962 225.708 37.5243L226.862 36.6724L225.826 34.8505C225.258 33.85 224.782 33.033 224.769 33.0287C224.756 33.0287 224.227 33.3432 223.589 33.7321ZM224.739 38.0136C224.634 38.1098 222.812 39.451 222.781 39.451C222.768 39.451 222.759 38.3151 222.759 36.9301V34.4092L223.786 36.1743C224.765 37.852 224.813 37.9437 224.739 38.0136Z" fill="#9B9996"/>
<path d="M199.299 34.2469C198.312 35.1164 198.015 35.4047 198.05 35.444C198.076 35.4746 198.106 35.5008 198.124 35.5008C198.137 35.5008 198.299 35.3741 198.478 35.2169C198.657 35.0596 198.819 34.9329 198.836 34.9329C198.849 34.9329 199.111 35.23 199.413 35.5926L199.963 36.2523V39.0616V41.8708L199.583 42.2116C199.369 42.3994 199.19 42.5611 199.181 42.5655C199.168 42.5742 199.19 42.6092 199.225 42.6441C199.282 42.7053 199.338 42.6703 199.701 42.3601C200.024 42.0849 200.125 42.0193 200.164 42.063C200.19 42.0936 200.57 42.5436 201.012 43.0592C201.453 43.5747 201.837 44.0247 201.868 44.0597C201.912 44.1077 202.143 43.9155 203.214 42.9499C203.926 42.3121 204.507 41.7703 204.507 41.7572C204.507 41.7397 204.489 41.7004 204.472 41.6698C204.446 41.6305 204.332 41.7048 204.066 41.9407C203.865 42.1242 203.686 42.2727 203.668 42.2727C203.651 42.2727 203.402 42.0019 203.113 41.6698L202.589 41.0713L202.585 38.297V35.5227L203.026 35.1338C203.432 34.78 203.502 34.6795 203.384 34.6402C203.358 34.6314 203.157 34.78 202.934 34.9722C202.711 35.1688 202.515 35.313 202.493 35.3042C202.475 35.2911 202.078 34.8324 201.615 34.2863C201.152 33.7445 200.732 33.2508 200.684 33.1984L200.597 33.1023L199.299 34.2469Z" fill="#9B9996"/>
</svg>
