<svg width="10" height="14" viewBox="0 0 10 14" fill="none" xmlns="http://www.w3.org/2000/svg">
<path d="M9.09987 0H0.69999C0.514341 0 0.336296 0.0737487 0.205023 0.205022C0.0737489 0.336296 1.5157e-09 0.514341 1.5157e-09 0.69999V13.2998C-8.80262e-06 13.4336 0.0383376 13.5646 0.110496 13.6773C0.182655 13.79 0.285602 13.8797 0.407143 13.9356C0.528683 13.9916 0.663722 14.0116 0.796264 13.9932C0.928805 13.9748 1.05329 13.9188 1.15498 13.8318L4.89993 10.6889L8.60288 13.7968C8.66829 13.8617 8.74586 13.913 8.83114 13.9478C8.91643 13.9827 9.00775 14.0003 9.09987 13.9998C9.1917 14.0022 9.28279 13.983 9.36587 13.9438C9.4937 13.8913 9.60313 13.8021 9.68036 13.6875C9.75759 13.5729 9.79917 13.438 9.79986 13.2998V0.69999C9.79986 0.514341 9.72612 0.336296 9.59484 0.205022C9.46357 0.0737487 9.28552 0 9.09987 0ZM8.39988 11.8018L5.34793 9.23987C5.22215 9.13511 5.06363 9.07774 4.89993 9.07774C4.73624 9.07774 4.57772 9.13511 4.45194 9.23987L1.39998 11.8018V1.39998H8.39988V11.8018Z" fill="#AFAFAF"/>
</svg>
