<svg width="16" height="15" viewBox="0 0 16 15" fill="none" xmlns="http://www.w3.org/2000/svg">
<path d="M14.7049 12.1648C14.7049 12.5216 14.5631 12.8638 14.3108 13.1162C14.0584 13.3685 13.7162 13.5103 13.3594 13.5103H2.59549C2.23864 13.5103 1.89641 13.3685 1.64408 13.1162C1.39176 12.8638 1.25 12.5216 1.25 12.1648V2.74637C1.25 2.38952 1.39176 2.04729 1.64408 1.79496C1.89641 1.54264 2.23864 1.40088 2.59549 1.40088H5.9592L7.30469 3.41911H13.3594C13.7162 3.41911 14.0584 3.56086 14.3108 3.81319C14.5631 4.06552 14.7049 4.40775 14.7049 4.76459V12.1648Z" stroke="#AFAFAF" stroke-width="1.5" stroke-linecap="round" stroke-linejoin="round"/>
<path d="M7.97754 6.78271V10.8192" stroke="#AFAFAF" stroke-width="1.5" stroke-linecap="round" stroke-linejoin="round"/>
<path d="M5.95801 8.80151H9.99447" stroke="#AFAFAF" stroke-width="1.5" stroke-linecap="round" stroke-linejoin="round"/>
</svg>
