<svg width="15" height="15" viewBox="0 0 15 15" fill="none" xmlns="http://www.w3.org/2000/svg">
<path d="M13.8243 0.251372C13.7593 0.185801 13.6819 0.133755 13.5966 0.0982372C13.5114 0.0627198 13.42 0.0444336 13.3276 0.0444336C13.2352 0.0444336 13.1438 0.0627198 13.0586 0.0982372C12.9733 0.133755 12.8959 0.185801 12.8309 0.251372L8.78024 4.30902V3.19666C8.78024 3.01112 8.70653 2.83318 8.57533 2.70198C8.44413 2.57078 8.26618 2.49707 8.08064 2.49707C7.8951 2.49707 7.71715 2.57078 7.58595 2.70198C7.45475 2.83318 7.38105 3.01112 7.38105 3.19666V5.99504C7.38215 6.08646 7.40117 6.17678 7.43701 6.26089C7.50801 6.43183 7.64385 6.56768 7.8148 6.63867C7.8989 6.67452 7.98922 6.69353 8.08064 6.69464H10.879C11.0646 6.69464 11.2425 6.62093 11.3737 6.48973C11.5049 6.35853 11.5786 6.18059 11.5786 5.99504C11.5786 5.8095 11.5049 5.63155 11.3737 5.50035C11.2425 5.36915 11.0646 5.29545 10.879 5.29545H9.76666L13.8243 1.2448C13.8899 1.17976 13.9419 1.10238 13.9774 1.01713C14.013 0.93188 14.0312 0.840439 14.0312 0.748084C14.0312 0.65573 14.013 0.564289 13.9774 0.479037C13.9419 0.393785 13.8899 0.316409 13.8243 0.251372ZM6.2477 7.4502C6.1636 7.41435 6.07328 7.39534 5.98186 7.39423H3.18348C2.99794 7.39423 2.81999 7.46794 2.68879 7.59914C2.55759 7.73034 2.48389 7.90828 2.48389 8.09382C2.48389 8.27937 2.55759 8.45731 2.68879 8.58851C2.81999 8.71971 2.99794 8.79342 3.18348 8.79342H4.29584L0.238189 12.8441C0.172617 12.9091 0.120571 12.9865 0.0850536 13.0717C0.0495362 13.157 0.03125 13.2484 0.03125 13.3408C0.03125 13.4331 0.0495362 13.5246 0.0850536 13.6098C0.120571 13.6951 0.172617 13.7725 0.238189 13.8375C0.303225 13.9031 0.380601 13.9551 0.465853 13.9906C0.551105 14.0261 0.642546 14.0444 0.734901 14.0444C0.827256 14.0444 0.918696 14.0261 1.00395 13.9906C1.0892 13.9551 1.16658 13.9031 1.23161 13.8375L5.28226 9.77985V10.8922C5.28226 11.0777 5.35597 11.2557 5.48717 11.3869C5.61837 11.5181 5.79631 11.5918 5.98186 11.5918C6.1674 11.5918 6.34535 11.5181 6.47655 11.3869C6.60775 11.2557 6.68145 11.0777 6.68145 10.8922V8.09382C6.68035 8.0024 6.66133 7.91209 6.62549 7.82798C6.55449 7.65703 6.41865 7.52119 6.2477 7.4502Z" fill="#AFAFAF"/>
</svg>
