<svg width="15" height="15" viewBox="0 0 15 15" fill="none" xmlns="http://www.w3.org/2000/svg">
<path d="M7.34339 9.6079L4.70738 12.2439C4.55147 12.4004 4.36618 12.5246 4.16216 12.6094C3.95813 12.6941 3.73938 12.7378 3.51845 12.7378C3.29753 12.7378 3.07878 12.6941 2.87475 12.6094C2.67072 12.5246 2.48544 12.4004 2.32953 12.2439C2.17219 12.0885 2.04726 11.9033 1.962 11.6992C1.87674 11.4952 1.83283 11.2762 1.83283 11.055C1.83283 10.8338 1.87674 10.6148 1.962 10.4107C2.04726 10.2066 2.17219 10.0215 2.32953 9.86607L4.96554 7.23006C5.09347 7.10213 5.16534 6.92862 5.16534 6.74769C5.16534 6.56677 5.09347 6.39326 4.96554 6.26533C4.83761 6.1374 4.6641 6.06553 4.48318 6.06553C4.30226 6.06553 4.12875 6.1374 4.00082 6.26533L1.36481 8.90814C0.833769 9.48615 0.546569 10.247 0.563183 11.0317C0.579796 11.8165 0.898939 12.5645 1.45396 13.1195C2.00899 13.6745 2.75698 13.9936 3.54172 14.0103C4.32647 14.0269 5.08729 13.7397 5.66531 13.2086L8.30811 10.5726C8.43605 10.4447 8.50792 10.2712 8.50792 10.0903C8.50792 9.90934 8.43605 9.73583 8.30811 9.6079C8.18018 9.47997 8.00667 9.4081 7.82575 9.4081C7.64483 9.4081 7.47132 9.47997 7.34339 9.6079ZM5.11501 9.45844C5.17849 9.5214 5.25378 9.57122 5.33655 9.60503C5.41932 9.63884 5.50796 9.65598 5.59737 9.65546C5.68678 9.65598 5.77542 9.63884 5.85819 9.60503C5.94097 9.57122 6.01625 9.5214 6.07973 9.45844L9.42231 6.11587C9.55024 5.98794 9.62211 5.81442 9.62211 5.6335C9.62211 5.45258 9.55024 5.27907 9.42231 5.15114C9.29437 5.02321 9.12086 4.95134 8.93994 4.95134C8.75902 4.95134 8.58551 5.02321 8.45758 5.15114L5.11501 8.49371C5.05133 8.55687 5.00079 8.63201 4.9663 8.7148C4.9318 8.79759 4.91405 8.88639 4.91405 8.97608C4.91405 9.06576 4.9318 9.15456 4.9663 9.23735C5.00079 9.32014 5.05133 9.39528 5.11501 9.45844ZM13.3831 11.3811H12.7037V10.7017C12.7037 10.5215 12.6322 10.3487 12.5047 10.2213C12.3773 10.0939 12.2045 10.0223 12.0243 10.0223C11.8442 10.0223 11.6714 10.0939 11.5439 10.2213C11.4165 10.3487 11.345 10.5215 11.345 10.7017V11.3811H10.6656C10.4854 11.3811 10.3126 11.4527 10.1852 11.5801C10.0578 11.7075 9.98619 11.8803 9.98619 12.0605C9.98619 12.2407 10.0578 12.4135 10.1852 12.5409C10.3126 12.6683 10.4854 12.7399 10.6656 12.7399H11.345V13.4192C11.345 13.5994 11.4165 13.7722 11.5439 13.8996C11.6714 14.0271 11.8442 14.0986 12.0243 14.0986C12.2045 14.0986 12.3773 14.0271 12.5047 13.8996C12.6322 13.7722 12.7037 13.5994 12.7037 13.4192V12.7399H13.3831C13.5633 12.7399 13.7361 12.6683 13.8635 12.5409C13.9909 12.4135 14.0625 12.2407 14.0625 12.0605C14.0625 11.8803 13.9909 11.7075 13.8635 11.5801C13.7361 11.4527 13.5633 11.3811 13.3831 11.3811ZM10.5365 8.34425L13.1725 5.70144C13.7035 5.12343 13.9907 4.3626 13.9741 3.57785C13.9575 2.79311 13.6384 2.04512 13.0833 1.4901C12.5283 0.935072 11.7803 0.615929 10.9956 0.599315C10.2108 0.582702 9.45002 0.869902 8.872 1.40094L6.2292 4.03695C6.16585 4.10029 6.11561 4.1755 6.08132 4.25826C6.04704 4.34102 6.0294 4.42973 6.0294 4.51931C6.0294 4.6089 6.04704 4.6976 6.08132 4.78037C6.11561 4.86313 6.16585 4.93833 6.2292 5.00168C6.29254 5.06502 6.36774 5.11527 6.45051 5.14955C6.53327 5.18383 6.62198 5.20148 6.71156 5.20148C6.80114 5.20148 6.88985 5.18383 6.97261 5.14955C7.05538 5.11527 7.13058 5.06502 7.19392 5.00168L9.82994 2.36566C9.98585 2.20914 10.1711 2.08494 10.3752 2.00019C10.5792 1.91544 10.7979 1.87182 11.0189 1.87182C11.2398 1.87182 11.4585 1.91544 11.6626 2.00019C11.8666 2.08494 12.0519 2.20914 12.2078 2.36566C12.3651 2.52111 12.4901 2.70625 12.5753 2.91033C12.6606 3.11442 12.7045 3.3334 12.7045 3.55459C12.7045 3.77577 12.6606 3.99475 12.5753 4.19884C12.4901 4.40293 12.3651 4.58806 12.2078 4.74351L9.57177 7.37952C9.50809 7.44268 9.45755 7.51782 9.42306 7.60061C9.38857 7.6834 9.37081 7.7722 9.37081 7.86188C9.37081 7.95157 9.38857 8.04037 9.42306 8.12316C9.45755 8.20595 9.50809 8.28109 9.57177 8.34425C9.63493 8.40793 9.71007 8.45847 9.79286 8.49296C9.87565 8.52745 9.96445 8.54521 10.0541 8.54521C10.1438 8.54521 10.2326 8.52745 10.3154 8.49296C10.3982 8.45847 10.4733 8.40793 10.5365 8.34425Z" fill="#AFAFAF"/>
</svg>
